<svg id="Layer_1" data-name="Layer 1" xmlns="http://www.w3.org/2000/svg" viewBox="0 0 400 100"><defs><style>.cls-1,.cls-2{fill:#fff;}.cls-2{isolation:isolate;font-size:12px;font-family:MicrosoftYaHeiUI-Bold, Microsoft YaHei UI;font-weight:700;letter-spacing:0.55em;}</style></defs><g id="Layer_7" data-name="Layer 7"><path class="cls-1" d="M92.34,65.32l16.33-42a.19.19,0,0,1,.18-.13h7.08a.21.21,0,0,1,.19.13l16.66,41.94a.19.19,0,0,1-.09.25.15.15,0,0,1-.09,0h-9.36a.21.21,0,0,1-.19-.13L112.44,37.79a.21.21,0,0,0-.25-.13.21.21,0,0,0-.13.13l-10,27.66a.19.19,0,0,1-.18.13H92.53a.2.2,0,0,1-.2-.2A.13.13,0,0,1,92.34,65.32Z"/><path class="cls-1" d="M92.34,65.32l16.33-42a.19.19,0,0,1,.18-.13h7.08a.21.21,0,0,1,.19.13l16.66,41.94a.19.19,0,0,1-.09.25.15.15,0,0,1-.09,0h-9.36a.21.21,0,0,1-.19-.13L112.44,37.79a.21.21,0,0,0-.25-.13.21.21,0,0,0-.13.13l-10,27.66a.19.19,0,0,1-.18.13H92.53a.2.2,0,0,1-.2-.2A.13.13,0,0,1,92.34,65.32Z"/><path class="cls-1" d="M92.34,65.32l16.33-42a.19.19,0,0,1,.18-.13h7.08a.21.21,0,0,1,.19.13l16.66,41.94a.19.19,0,0,1-.09.25.15.15,0,0,1-.09,0h-9.36a.21.21,0,0,1-.19-.13L112.44,37.79a.21.21,0,0,0-.25-.13.21.21,0,0,0-.13.13l-10,27.66a.19.19,0,0,1-.18.13H92.53a.2.2,0,0,1-.2-.2A.13.13,0,0,1,92.34,65.32Z"/><path class="cls-1" d="M106.38,54.66l6.19,10.17a.2.2,0,0,0,.25.09.2.2,0,0,0,.09-.09l5.67-10.18a.2.2,0,0,0-.17-.3H106.55a.22.22,0,0,0-.2.22Z"/><path class="cls-1" d="M134.89,57.63l5.2-6.55a.19.19,0,0,1,.27,0l0,0c4,4.36,6.19,5.66,9.46,6,4.14.38,6.84-.88,6.63-4-.19-2.82-2.71-3.4-6.35-5l-5.25-2.24c-4.18-1.7-8.15-5.14-8.15-11,0-6.69,6-12,14.39-12,4.6,0,10.31,2.53,13.8,5.93a.21.21,0,0,1,0,.26l-4.87,6.48a.19.19,0,0,1-.27,0h0c-2.62-2-5.54-4.82-8.67-4.82S146,32,146,34.31c0,2.48,2.64,3.38,6.17,4.78l5.14,2.09c4.94,2,7.69,5.29,8,11,.43,7.49-5.08,13.69-15.25,13.42-5.27-.15-11.08-3.51-15.15-7.7a.19.19,0,0,1,0-.27Z"/><path class="cls-1" d="M170.38,57.25l5.12-6.12a.2.2,0,0,1,.28,0l0,0c2.88,3.65,7.1,5.68,10.37,5.68,3.81,0,5.68-1.5,5.68-3.9s-2.3-3.36-5.83-4.81l-5.25-2.24c-4.19-1.7-8.15-5.14-8.15-11,0-6.69,6-12,14.39-12,4.59,0,9.65,2.38,13.12,5.78a.19.19,0,0,1,0,.27h0l-5,6.23a.19.19,0,0,1-.27,0h0c-2.64-2-5.81-4.38-8.94-4.38s-4.85,1.3-4.85,3.61c0,2.48,3.44,3.89,7,5.3l5.73,2.47c5.3,2.09,6.89,6.26,6.89,10.32,0,6.71-4.61,12.41-14.21,13.15-5.77.44-12.32-3.57-16.13-8.08A.2.2,0,0,1,170.38,57.25Z"/><path class="cls-1" d="M209.36,25.92l8.73-3a.21.21,0,0,1,.26.14.09.09,0,0,1,0,.05V64.93a.2.2,0,0,1-.2.2h-8.74a.2.2,0,0,1-.2-.2V26.11A.2.2,0,0,1,209.36,25.92Z"/><path class="cls-1" d="M225.19,44.16c0-13.41,8.8-21.51,21.75-21.36a22,22,0,0,1,16.6,8.28.19.19,0,0,1,0,.28l-6.28,5.27a.19.19,0,0,1-.27,0h0a12.84,12.84,0,0,0-10.18-5.3,12.68,12.68,0,0,0-.06,25.36q.63,0,1.26-.06a13,13,0,0,0,10.41-7.47.09.09,0,0,0,0-.07v-.91l-11.67.06a.19.19,0,0,1-.2-.18h0L246.46,40a.22.22,0,0,1,.2-.21h21.13a.19.19,0,0,1,.2.18h0c0,.84,0,4.31-.18,7.88a18.65,18.65,0,0,1-2.3,6.71,21,21,0,0,1-3.28,4.22c-3.66,4.63-8.7,6.5-15.47,6.5C233.42,65.19,225.19,57.77,225.19,44.16Z"/><path class="cls-1" d="M272.87,22.89h7.07a.21.21,0,0,1,.16.08l18.19,25a.2.2,0,0,0,.28,0,.21.21,0,0,0,.08-.16V23.09a.2.2,0,0,1,.2-.2h8.54a.2.2,0,0,1,.2.2h0v42.3a.2.2,0,0,1-.2.2H300a.2.2,0,0,1-.17-.09l-18-25.77a.2.2,0,0,0-.28,0,.19.19,0,0,0-.08.15V65.39a.2.2,0,0,1-.2.2h-8.71a.19.19,0,0,1-.2-.18v0l.36-42.3A.2.2,0,0,1,272.87,22.89Z"/><path class="cls-1" d="M317.84,26l8.73-3a.21.21,0,0,1,.26.14.09.09,0,0,1,0,.05v42.2a.2.2,0,0,1-.2.2H317.9a.2.2,0,0,1-.2-.2h0V26.16A.19.19,0,0,1,317.84,26Z"/><path class="cls-1" d="M332.1,22.89h9.69A.19.19,0,0,1,342,23l9.31,13.69a.2.2,0,0,0,.28.05.12.12,0,0,0,.05-.05L361,23a.17.17,0,0,1,.16-.09h9.49a.18.18,0,0,1,.2.18.17.17,0,0,1,0,.13l-29,42.3a.17.17,0,0,1-.16.09h-10.3a.2.2,0,0,1-.2-.2.17.17,0,0,1,0-.12l14.94-21.15a.24.24,0,0,0,0-.23L331.93,23.2a.2.2,0,0,1,.06-.28A.2.2,0,0,1,332.1,22.89Z"/><path class="cls-1" d="M354,54.18h10a.2.2,0,0,1,.17.09l7.38,11a.2.2,0,0,1-.06.28.2.2,0,0,1-.11,0H361.19a.22.22,0,0,1-.17-.09l-7.16-11a.2.2,0,0,1,.05-.28Z"/><text class="cls-2" transform="translate(92.54 85.24)">AI-Enhanced Scheduler</text></g><g id="Isolation_Mode" data-name="Isolation Mode"><path class="cls-1" d="M56.11,47.69a10.21,10.21,0,1,0-2.76-.18L38,84.38h0A1.25,1.25,0,0,0,38.69,86a1.28,1.28,0,0,0,.48.09L69.84,86a1.24,1.24,0,0,0,1.24-1.24,1.32,1.32,0,0,0-.08-.44ZM47.54,37.55a7.87,7.87,0,1,1,7.91,7.83h0A7.86,7.86,0,0,1,47.54,37.55Zm-6.69,46.2L54.68,50.44,68.2,83.69Z"/><path class="cls-1" d="M65.94,14.19l-.7-.29v2.56a23.2,23.2,0,0,1,0,42.21v2.56a25.55,25.55,0,0,0,.7-47Z"/><path class="cls-1" d="M71.51,37.55a16.07,16.07,0,0,1-10,14.83v2.5a18.32,18.32,0,0,0,0-34.66v2.5A16.07,16.07,0,0,1,71.51,37.55Z"/><path class="cls-1" d="M43.72,58.67a23.19,23.19,0,0,1,0-42.21V13.9l-.7.29a25.55,25.55,0,0,0,.7,47Z"/><path class="cls-1" d="M47.47,22.72v-2.5a18.32,18.32,0,0,0,0,34.66v-2.5a16,16,0,0,1,0-29.66Z"/></g></svg>