<svg width="882" height="657" viewBox="0 0 882 657" fill="none" xmlns="http://www.w3.org/2000/svg">
<path d="M483 486.63C662.531 486.63 808.07 475.003 808.07 460.66C808.07 446.317 662.531 434.69 483 434.69C303.469 434.69 157.93 446.317 157.93 460.66C157.93 475.003 303.469 486.63 483 486.63Z" fill="#DAE6F0"/>
<path d="M302.293 312.365C337.03 277.628 337.03 221.308 302.293 186.571C267.556 151.833 211.235 151.833 176.498 186.571C141.761 221.308 141.761 277.628 176.498 312.365C211.235 347.102 267.556 347.102 302.293 312.365Z" stroke="#263F5C" stroke-miterlimit="10" stroke-linecap="round" stroke-dasharray="5 5 5 5 5 5"/>
<path d="M789.502 409.07C824.239 374.333 824.239 318.013 789.502 283.275C754.765 248.538 698.445 248.538 663.708 283.275C628.971 318.013 628.971 374.333 663.708 409.07C698.445 443.807 754.765 443.807 789.502 409.07Z" stroke="#263F5C" stroke-miterlimit="10" stroke-linecap="round" stroke-dasharray="5 5 5 5 5 5"/>
<path d="M500.73 168.84C500.73 162.914 499.306 157.074 496.578 151.812C493.851 146.551 489.899 142.022 485.056 138.606C480.213 135.19 474.621 132.987 468.749 132.183C462.877 131.379 456.898 131.998 451.315 133.986C445.733 135.975 440.709 139.275 436.668 143.61C432.626 147.945 429.685 153.187 428.092 158.895C426.499 164.603 426.3 170.611 427.513 176.412C428.725 182.213 431.314 187.638 435.06 192.23C443.118 201.882 450.062 212.412 455.76 223.62L456.94 226H470.52L471.7 223.61C477.273 212.48 484.137 202.045 492.15 192.52C497.707 185.882 500.745 177.497 500.73 168.84Z" fill="#FCB651"/>
<path d="M467.83 235.32H459.62C458.901 235.32 458.212 235.034 457.704 234.526C457.195 234.018 456.91 233.329 456.91 232.61C456.909 232.253 456.978 231.9 457.113 231.57C457.249 231.24 457.448 230.94 457.7 230.687C457.952 230.434 458.251 230.234 458.581 230.097C458.91 229.96 459.263 229.89 459.62 229.89H467.83C468.551 229.89 469.243 230.176 469.753 230.687C470.263 231.197 470.55 231.889 470.55 232.61C470.55 232.967 470.48 233.32 470.343 233.649C470.206 233.979 470.005 234.278 469.753 234.53C469.5 234.781 469.2 234.981 468.87 235.116C468.54 235.252 468.187 235.321 467.83 235.32Z" fill="#0C143B"/>
<path d="M465.91 223.38C465.91 223.38 465.43 183.75 476.13 178.91C486.61 174.17 486.93 195.77 466.46 197.97C465.616 198.052 464.768 198.088 463.92 198.08H463.53C462.686 198.098 461.841 198.071 461 198C440.54 195.8 440.86 174.2 451.34 178.94C462.03 183.78 461.56 223.41 461.56 223.41" stroke="white" stroke-miterlimit="10"/>
<path d="M471.75 227.6H455.75C455.029 227.6 454.337 227.313 453.827 226.803C453.317 226.293 453.03 225.601 453.03 224.88C453.03 224.523 453.1 224.17 453.237 223.841C453.374 223.511 453.575 223.212 453.827 222.96C454.08 222.708 454.38 222.509 454.71 222.373C455.04 222.238 455.393 222.169 455.75 222.17H471.75C472.107 222.169 472.46 222.238 472.79 222.373C473.12 222.509 473.42 222.708 473.673 222.96C473.925 223.212 474.126 223.511 474.263 223.841C474.4 224.17 474.47 224.523 474.47 224.88C474.47 225.601 474.183 226.293 473.673 226.803C473.163 227.313 472.471 227.6 471.75 227.6Z" fill="#0C143B"/>
<path d="M442.78 145.81C437.22 151.68 436.06 159.61 440.2 163.54C444.34 167.47 452.2 165.9 457.76 160.04C463.32 154.18 464.49 146.24 460.35 142.31C456.21 138.38 448.35 140 442.78 145.81Z" fill="#F1CB6F"/>
<path d="M454.23 299.28V229.05H392.62C392.62 214.688 386.915 200.915 376.76 190.76C366.605 180.605 352.831 174.9 338.47 174.9C324.108 174.9 310.335 180.605 300.18 190.76C290.025 200.915 284.32 214.688 284.32 229.05H222.71V299.28C236.945 299.473 250.532 305.264 260.53 315.399C270.528 325.534 276.134 339.198 276.134 353.435C276.134 367.672 270.528 381.336 260.53 391.471C250.532 401.606 236.945 407.396 222.71 407.59V460.59H454.23V407.59C447.056 407.687 439.935 406.359 433.279 403.681C426.623 401.003 420.566 397.03 415.458 391.991C410.351 386.953 406.295 380.95 403.527 374.331C400.759 367.712 399.334 360.609 399.334 353.435C399.334 346.261 400.759 339.158 403.527 332.539C406.295 325.92 410.351 319.917 415.458 314.879C420.566 309.84 426.623 305.867 433.279 303.189C439.935 300.511 447.056 299.182 454.23 299.28Z" fill="#5C718C"/>
<path d="M728.24 299.28V229.05H666.63C666.63 214.688 660.925 200.915 650.77 190.76C640.615 180.605 626.841 174.9 612.48 174.9C598.118 174.9 584.345 180.605 574.19 190.76C564.035 200.915 558.33 214.688 558.33 229.05H496.72V299.28C482.485 299.473 468.898 305.264 458.9 315.399C448.901 325.534 443.296 339.198 443.296 353.435C443.296 367.672 448.901 381.336 458.9 391.471C468.898 401.606 482.485 407.396 496.72 407.59V460.59H558.38C558.38 459.94 558.33 459.29 558.33 458.59C558.33 444.228 564.035 430.455 574.19 420.3C584.345 410.145 598.118 404.44 612.48 404.44C626.841 404.44 640.615 410.145 650.77 420.3C660.925 430.455 666.63 444.228 666.63 458.59C666.63 459.25 666.63 459.9 666.63 460.59H728.29V407.59C714.055 407.396 700.468 401.606 690.47 391.471C680.471 381.336 674.866 367.672 674.866 353.435C674.866 339.198 680.471 325.534 690.47 315.399C700.468 305.264 714.055 299.473 728.29 299.28H728.24Z" fill="#1A4279"/>
<path d="M658.39 336.21V311.89H641.69C640.555 306.548 638.584 301.418 635.85 296.69L648.12 284.42L630.93 267.23L619.11 279C614.532 276.021 609.514 273.78 604.24 272.36V255.06H579.93V271.76C574.582 272.887 569.448 274.859 564.72 277.6L552.45 265.32L535.26 282.52L547.08 294.33C544.096 298.905 541.855 303.924 540.44 309.2H523.09V333.52H539.79C540.925 338.862 542.896 343.992 545.63 348.72L533.36 361L550.55 378.2L562.37 366.38C566.947 369.357 571.965 371.591 577.24 373V390.34H601.55V373.64C606.895 372.514 612.026 370.543 616.75 367.8L629 380.09L646.19 362.89L634.4 351.08C637.372 346.503 639.599 341.484 641 336.21H658.39ZM590.74 349.42C585.454 349.422 580.287 347.856 575.891 344.921C571.496 341.986 568.069 337.813 566.046 332.93C564.022 328.047 563.492 322.674 564.523 317.49C565.554 312.306 568.099 307.544 571.836 303.806C575.574 300.069 580.336 297.524 585.52 296.493C590.704 295.462 596.077 295.992 600.96 298.016C605.843 300.04 610.016 303.466 612.951 307.861C615.886 312.257 617.452 317.424 617.45 322.71C617.45 329.794 614.636 336.588 609.627 341.597C604.618 346.606 597.824 349.42 590.74 349.42Z" fill="white"/>
<path d="M587.34 168.05L595.08 154.27L585.62 149C586.679 145.609 587.195 142.072 587.15 138.52L598.02 135.52L593.75 120.29L583.28 123.23C581.64 120.08 579.51 117.211 576.97 114.73L582.49 104.89L568.71 96.9999L563.39 106.47C559.996 105.432 556.459 104.935 552.91 105L549.86 94.1299L534.63 98.3999L537.57 108.87C534.421 110.51 531.552 112.64 529.07 115.18L519.23 109.65L511.48 123.44L521 128.74C519.941 132.131 519.425 135.668 519.47 139.22L508.6 142.22L512.87 157.45L523.34 154.51C524.98 157.659 527.11 160.528 529.65 163.01L524.12 172.85L537.91 180.59L543.23 171.13C546.621 172.189 550.158 172.705 553.71 172.66L556.71 183.53L571.94 179.26L569 168.84C572.149 167.2 575.018 165.07 577.5 162.53L587.34 168.05ZM544.77 154C541.776 152.316 539.349 149.782 537.795 146.718C536.241 143.654 535.631 140.199 536.041 136.788C536.451 133.378 537.863 130.165 540.098 127.557C542.334 124.949 545.292 123.062 548.6 122.135C551.908 121.209 555.416 121.283 558.681 122.35C561.946 123.417 564.822 125.428 566.944 128.129C569.067 130.829 570.341 134.099 570.605 137.524C570.87 140.949 570.113 144.375 568.43 147.37C566.171 151.386 562.409 154.34 557.972 155.583C553.536 156.826 548.787 156.257 544.77 154Z" fill="#5C718C"/>
<path d="M747.86 194.27L753.08 179.35L742.83 175.76C743.281 172.235 743.173 168.661 742.51 165.17L752.68 160.27L745.82 146L736 150.74C733.83 147.929 731.231 145.476 728.3 143.47L732.02 132.82L717.12 127.6L713.54 137.85C710.015 137.399 706.441 137.507 702.95 138.17L698.05 128L683.81 134.86L688.52 144.66C685.704 146.825 683.25 149.424 681.25 152.36L670.6 148.63L665.38 163.56L675.63 167.15C675.18 170.672 675.288 174.242 675.95 177.73L665.78 182.63L672.64 196.88L682.44 192.16C684.605 194.976 687.204 197.43 690.14 199.43L686.41 210.08L701.34 215.3L704.93 205.05C708.452 205.501 712.022 205.393 715.51 204.73L720.41 214.9L734.66 208L729.94 198.21C732.751 196.04 735.204 193.441 737.21 190.51L747.86 194.27ZM703.49 187.85C700.245 186.715 697.409 184.644 695.342 181.897C693.274 179.15 692.068 175.852 691.875 172.42C691.682 168.987 692.511 165.575 694.258 162.614C696.004 159.653 698.59 157.276 701.688 155.785C704.785 154.294 708.255 153.754 711.659 154.235C715.063 154.716 718.248 156.196 720.811 158.487C723.374 160.779 725.2 163.779 726.057 167.108C726.915 170.437 726.767 173.946 725.63 177.19C724.107 181.539 720.919 185.105 716.767 187.104C712.615 189.103 707.84 189.371 703.49 187.85Z" fill="#1A4279"/>
<path d="M534.82 257.57C534.82 257.57 555.47 259.12 565.63 257.44C565.63 257.44 564.04 263.36 549.39 263.32C534.74 263.28 534.82 257.57 534.82 257.57Z" fill="#477DA1"/>
<path d="M578 269.4C578.26 279.12 578.83 294.26 580 306.86C580 306.86 611 300.86 622.65 300.86L622.38 305.86C622.38 305.86 592.75 323.4 572.11 322.31C570.696 322.219 569.332 321.755 568.157 320.964C566.981 320.174 566.037 319.085 565.42 317.81C562.42 311.81 560.7 298.33 560.33 270.1C560.26 264.41 562.06 259.52 567.75 259.5C570.413 259.486 572.975 260.513 574.891 262.363C576.806 264.213 577.922 266.738 578 269.4Z" fill="#934545"/>
<path d="M616.13 302.68C615.776 301.54 615.825 300.314 616.269 299.206C616.714 298.099 617.526 297.178 618.57 296.6C622.31 294.54 623.18 290.03 625.29 289.91C627.04 289.81 626.67 292.74 625.53 294.65C624.69 296.05 622.94 297.16 623.35 297.3C624.823 297.613 626.346 297.592 627.81 297.24C629.4 296.63 637.12 292.97 637.45 292.76C639.92 291.17 640.51 292.53 640.51 292.53C641.71 294.38 636.69 297.04 635.3 297.8C633.21 298.94 629.6 300.59 629.6 300.59L629.69 300.94L643.07 299.4C643.405 299.32 643.758 299.374 644.055 299.549C644.351 299.724 644.568 300.008 644.66 300.34C644.74 300.84 644.48 301.62 643.1 302.1C641.01 302.82 633.54 304.98 630.45 305.18C630.45 305.18 637.73 305.04 640.51 305.8C641.43 306.06 642.92 306.44 642.72 307.52C642.5 308.75 640.3 308.65 639.96 308.67C636.573 308.776 633.183 308.619 629.82 308.2L629.6 308.6C629.6 308.6 637.05 308.08 636.98 310.16C636.93 311.42 635.39 311.11 634.9 311.08C632.99 310.96 626.75 311.33 625.9 311.34C623.95 311.34 620.33 311.13 618.01 309.07C617.082 308.324 616.404 307.312 616.068 306.17C615.732 305.028 615.753 303.81 616.13 302.68Z" fill="#934545"/>
<path d="M540.41 229.88C542.54 232.74 543.16 237.54 540.79 239.27C538.42 241 533.97 238.98 531.79 236.12C529.61 233.26 529.86 229.55 532.23 227.83C534.6 226.11 538.29 227 540.41 229.88Z" fill="#874545"/>
<path d="M538.17 234.17C537.831 233.732 537.438 233.339 537 233C536.096 232.26 535.025 231.751 533.88 231.52C533.68 231.52 533.6 231.79 533.8 231.83C534.904 232.043 535.936 232.531 536.8 233.25C537.083 233.478 537.35 233.725 537.6 233.99C537.67 234.07 537.75 234.15 537.81 234.23L537.87 234.3C537.99 234.46 538.27 234.3 538.15 234.14L538.17 234.17Z" fill="#0C143B"/>
<path d="M577 332.75L556.64 333.24V332.75L528.02 333.34C513.64 347.63 522.18 469.46 522.18 469.46L535.49 469.3C547.11 396.74 552.15 359.38 552.15 359.38H553.34H555.34C558.567 395.922 559.739 432.617 558.85 469.29L572.38 469.24C572.38 469.24 593.83 379.84 577 332.75Z" fill="#F1CB6F"/>
<path d="M556.63 333.24V332.75L528.01 333.34C526.17 335.18 524.7 338.78 523.54 343.67C540.29 355.06 563.45 354.14 580 343.33C579.218 339.745 578.216 336.212 577 332.75L556.63 333.24Z" fill="#FCB651"/>
<path d="M568.41 264.69C553.55 260.1 557.6 244.93 557.6 244.93H542.84C542.84 244.93 546.89 260.1 532.03 264.69C531.1 264.97 530.23 265.26 529.39 265.55C541.18 277.21 560.5 274.3 570.99 265.73V265.53C570.183 265.25 569.323 264.97 568.41 264.69Z" fill="#B26666"/>
<path d="M543.32 248.53C543.274 247.318 543.114 246.112 542.84 244.93L549.69 244.1V244L550.22 244.07L550.75 244V244.13L557.6 244.96C557.169 246.838 557.011 248.767 557.13 250.69C555.63 253.7 550.22 257.91 543.32 248.53Z" fill="#874545"/>
<path d="M567.5 220.15C568.13 226.35 568.64 239.7 562.81 245.52C555.14 253.18 541.87 248.65 538.64 240.8C535.85 234.02 535.86 221.61 540.74 213.45C543.27 209.22 548.57 206.15 555.1 206.45C564.78 207 567.31 218.2 567.5 220.15Z" fill="#B26666"/>
<path d="M554.79 222.51L555.06 227.77C555.12 229.07 555.19 230.36 555.26 231.66L555.33 233.17C555.316 233.474 555.333 233.779 555.38 234.08C555.38 234.08 555.38 234.2 555.38 234.24C555.26 234.05 555.64 234.12 555.31 234.12C555.19 234.12 555.05 234.18 554.92 234.2L553.23 234.53C553.03 234.53 553.12 234.87 553.32 234.83L555.58 234.39C555.614 234.383 555.643 234.364 555.664 234.336C555.684 234.308 555.693 234.274 555.69 234.24C555.517 230.82 555.343 227.4 555.17 223.98C555.17 223.49 555.12 222.98 555.1 222.51C555.1 222.31 554.77 222.31 554.78 222.51H554.79Z" fill="#0C143B"/>
<path d="M548.51 235.86C548.612 236.542 548.503 237.24 548.197 237.858C547.891 238.477 547.403 238.987 546.799 239.32C546.195 239.653 545.503 239.793 544.817 239.722C544.13 239.65 543.482 239.37 542.96 238.92C542.437 238.469 542.065 237.869 541.893 237.201C541.722 236.533 541.759 235.828 541.999 235.181C542.24 234.535 542.673 233.977 543.239 233.583C543.806 233.19 544.48 232.979 545.17 232.98C545.994 232.922 546.808 233.192 547.433 233.732C548.059 234.271 548.446 235.036 548.51 235.86Z" fill="#874545"/>
<path d="M565.53 235.86C565.632 236.542 565.523 237.24 565.217 237.858C564.911 238.477 564.423 238.987 563.819 239.32C563.215 239.653 562.523 239.793 561.837 239.722C561.15 239.65 560.502 239.37 559.98 238.92C559.457 238.469 559.085 237.869 558.913 237.201C558.742 236.533 558.779 235.828 559.019 235.181C559.26 234.535 559.693 233.977 560.26 233.583C560.826 233.19 561.5 232.979 562.19 232.98C563.014 232.922 563.828 233.192 564.453 233.732C565.079 234.271 565.466 235.036 565.53 235.86Z" fill="#874545"/>
<path d="M544.22 225.74C544.35 226.38 545.57 226.06 547.1 225.74C548.63 225.42 549.89 225.3 549.77 224.66C549.65 224.02 548.3 223.73 546.77 224.02C545.24 224.31 544.1 225.09 544.22 225.74Z" fill="#0C143B"/>
<path d="M558.35 224.45C558.22 225.09 559.48 225.25 561.01 225.55C562.54 225.85 563.76 226.17 563.89 225.55C564.02 224.93 562.89 224.15 561.35 223.85C559.81 223.55 558.48 223.81 558.35 224.45Z" fill="#0C143B"/>
<path d="M577.82 277.28C577.34 271.8 576.11 266.51 573.13 261.9C570.334 260.709 567.656 259.259 565.13 257.57C555.77 261.23 544.04 261.5 534.81 257.57C532.375 259.27 529.775 260.721 527.05 261.9C524.05 266.51 522.84 271.8 522.36 277.28C521.79 283.73 518.22 337.28 518.22 337.28C526.83 342.86 538.62 344.75 549.42 345.07H550.76C561.55 344.75 573.54 342.81 582.15 337.23C582.15 337.23 580.31 310.41 579 292.44C578.47 285 578 279.17 577.82 277.28Z" fill="#95C0F8"/>
<path opacity="0.4" d="M520.39 305.33C519.32 321.03 518.23 337.33 518.23 337.33C526.84 342.91 538.63 344.8 549.43 345.12H550.77C561.56 344.8 573.55 342.86 582.16 337.28C582.16 337.28 580.9 318.99 579.73 302.5C562.36 314.37 538.17 316 520.39 305.33Z" fill="#95C0F8"/>
<path d="M547.45 230.36C547.45 231.36 547.92 232.13 548.51 232.13C549.1 232.13 549.58 231.34 549.58 230.36C549.58 229.38 549.1 228.6 548.51 228.6C547.92 228.6 547.45 229.39 547.45 230.36Z" fill="#0C143B"/>
<path d="M558.34 230.36C558.34 231.36 558.82 232.13 559.4 232.13C559.98 232.13 560.47 231.34 560.47 230.36C560.47 229.38 559.99 228.6 559.4 228.6C558.81 228.6 558.34 229.39 558.34 230.36Z" fill="#0C143B"/>
<path d="M583.6 285.61C583.6 285.61 583.07 290.92 573.68 293.87L563.21 273.36L565.14 257.57C565.14 257.57 580.55 252.26 583.6 285.61Z" fill="#95C0F8"/>
<path d="M593.75 477.47C588.06 472.86 574.91 470.01 574.91 470.01L572.35 469.3L558.82 469.35C559.14 474.91 559.42 479.26 559.57 480C559.96 481.85 583.27 481.32 592.52 481C592.925 480.988 593.317 480.854 593.645 480.615C593.972 480.375 594.218 480.042 594.352 479.659C594.485 479.276 594.499 478.862 594.391 478.471C594.284 478.08 594.06 477.731 593.75 477.47Z" fill="#0E1325"/>
<path d="M538.25 470L535.48 469.29C530.09 469.29 527.56 469.44 522.17 469.45C522.48 474.96 522.76 479.26 522.92 479.99C523.3 481.84 546.61 481.31 555.86 480.99C556.275 480.988 556.679 480.857 557.016 480.616C557.353 480.374 557.607 480.034 557.742 479.642C557.877 479.249 557.887 478.825 557.77 478.427C557.653 478.029 557.416 477.677 557.09 477.42C551.4 472.86 538.25 470 538.25 470Z" fill="#0E1325"/>
<path d="M554.92 242.93C554.92 243.08 554.62 243.21 554.25 243.21C553.88 243.21 553.58 243.08 553.58 242.93C553.58 242.78 553.88 242.65 554.25 242.65C554.62 242.65 554.92 242.77 554.92 242.93Z" fill="#874545"/>
<path d="M558.19 236.44C556.947 236.983 555.599 237.246 554.243 237.211C552.887 237.177 551.554 236.845 550.34 236.24C550.34 236.24 549.73 240.24 553.78 240.59C558.44 241 558.19 236.44 558.19 236.44Z" fill="#6D2D25"/>
<mask id="mask0_52_2374" style="mask-type:luminance" maskUnits="userSpaceOnUse" x="550" y="236" width="9" height="5">
<path d="M558.19 236.44C556.947 236.983 555.599 237.246 554.243 237.211C552.887 237.177 551.554 236.845 550.34 236.24C550.34 236.24 549.73 240.24 553.78 240.59C558.44 241 558.19 236.44 558.19 236.44Z" fill="white"/>
</mask>
<g mask="url(#mask0_52_2374)">
<path d="M557.19 241C557.19 241 556.67 239.07 553.99 239.11C553.252 239.089 552.519 239.25 551.858 239.58C551.197 239.91 550.628 240.397 550.2 241C550.2 241 553.66 244.06 557.19 241Z" fill="#D57F6D"/>
<path d="M551 236.26C551 236.26 550.79 237.86 554.34 237.94C557.89 238.02 557.49 236.2 557.49 236.2L551 236.26Z" fill="white"/>
</g>
<path d="M578.94 291.84L577.07 275.56C577.07 275.56 576.22 287.94 578.94 291.84Z" fill="#95C0F8"/>
<path d="M564.53 301.35L632.73 295.99L637.01 298.82L588.11 303.55L564.53 301.35Z" fill="#1A4279"/>
<path d="M651.68 301.34H564.53V305.76H651.68V301.34Z" fill="#1A4279"/>
<path d="M654.57 256.47H591.54V305.77H654.57V256.47Z" fill="#1A4279"/>
<path d="M656.6 256.47H594.55V305.77H656.6V256.47Z" fill="#3E5F8E"/>
<path d="M656.59 274.18V256.47H594.59V267.86C612 282.11 637.24 285 656.59 274.18Z" fill="#476894"/>
<path d="M537.9 310.83C536.7 298.23 536.13 283.09 535.9 273.37C535.843 271.23 535.113 269.163 533.813 267.463C532.513 265.763 530.71 264.516 528.66 263.9C525.373 267.513 521.905 270.958 518.27 274.22C518.64 302.34 520.41 315.8 523.35 321.77C523.967 323.045 524.911 324.134 526.087 324.924C527.262 325.715 528.626 326.179 530.04 326.27C550.69 327.36 580.31 309.82 580.31 309.82L580.58 304.82C568.94 304.84 537.9 310.83 537.9 310.83Z" fill="#B26666"/>
<path d="M574 306.65C573.646 305.51 573.695 304.284 574.139 303.176C574.584 302.069 575.396 301.148 576.44 300.57C580.18 298.51 581.05 294 583.17 293.87C584.92 293.77 584.54 296.71 583.4 298.62C582.56 300.02 580.81 301.13 581.22 301.27C582.693 301.583 584.218 301.559 585.68 301.2C587.27 300.59 594.99 296.94 595.32 296.72C597.8 295.13 598.38 296.5 598.38 296.5C599.58 298.35 594.56 301.01 593.18 301.77C591.08 302.91 587.47 304.55 587.47 304.55L587.56 304.91L600.95 303.37C601.284 303.285 601.638 303.336 601.935 303.513C602.231 303.689 602.445 303.976 602.53 304.31C602.62 304.81 602.35 305.59 600.97 306.07C598.88 306.79 591.41 308.95 588.32 309.15C588.32 309.15 595.6 309.01 598.38 309.77C599.3 310.03 600.79 310.41 600.59 311.49C600.37 312.72 598.17 312.62 597.83 312.63C594.443 312.741 591.052 312.584 587.69 312.16L587.47 312.57C587.47 312.57 592.47 316.91 594.01 318.03C594.16 318.14 594.91 318.66 594.59 319.39C594.08 320.54 592.99 319.94 592.76 319.83C590.45 318.738 588.22 317.481 586.09 316.07C585.429 315.576 584.625 315.309 583.8 315.31C581.85 315.31 578.23 315.1 575.91 313.04C574.976 312.298 574.293 311.288 573.951 310.145C573.609 309.002 573.627 307.783 574 306.65Z" fill="#B26666"/>
<path d="M515.37 292.7C515.37 292.7 519.37 301.34 541.07 298.09L536.76 273.36L534.82 257.57C534.82 257.57 511 264.4 515.37 292.7Z" fill="#95C0F8"/>
<path d="M537 298.59L536.54 279.64C536.54 279.64 540.22 291.84 537 298.59Z" fill="#477DA1"/>
<path d="M627.81 283.55C629.158 283.55 630.25 282.457 630.25 281.11C630.25 279.762 629.158 278.67 627.81 278.67C626.462 278.67 625.37 279.762 625.37 281.11C625.37 282.457 626.462 283.55 627.81 283.55Z" fill="white"/>
<path d="M533.85 227.1C533.85 227.1 536.56 226.88 536.85 232.46C536.85 232.46 541.22 229.46 542.3 217.35V223.35C542.3 223.35 552.87 221.08 552.02 210.64C552.02 210.64 566.12 210.71 567.76 223.71C567.76 223.71 572.34 206.48 559.39 204.71C559.39 204.71 566.86 202.86 569.55 209.1C569.55 209.1 567.66 193.65 541.34 203.48C541.34 203.48 542.29 200.83 541.53 200.83C540.77 200.83 539.97 204.83 539.97 204.83C539.97 204.83 537.4 202.94 536.33 203.32C535.26 203.7 538.94 206.24 538.94 206.24C538.94 206.24 526.08 209.69 528.49 220.32L531.58 228.46C532.225 227.842 533.001 227.377 533.85 227.1Z" fill="#0E1325"/>
<path d="M537 260.81C537 260.81 557.4 267.01 565.67 259.09C565.63 259.09 559.87 270.54 537 260.81Z" fill="#477DA1"/>
<path d="M471.15 97.0799C471.15 98.2072 470.816 99.3093 470.189 100.247C469.563 101.184 468.673 101.915 467.631 102.346C466.59 102.777 465.444 102.89 464.338 102.67C463.232 102.45 462.217 101.908 461.419 101.11C460.622 100.313 460.079 99.2976 459.86 98.1919C459.64 97.0862 459.752 95.9401 460.184 94.8986C460.615 93.857 461.346 92.9668 462.283 92.3405C463.221 91.7142 464.323 91.3799 465.45 91.3799C466.962 91.3799 468.412 91.9804 469.48 93.0494C470.549 94.1183 471.15 95.5681 471.15 97.0799Z" fill="#1A4279"/>
<path d="M451.66 112.22C452.869 112.22 453.85 111.24 453.85 110.03C453.85 108.821 452.869 107.84 451.66 107.84C450.45 107.84 449.47 108.821 449.47 110.03C449.47 111.24 450.45 112.22 451.66 112.22Z" fill="#1A4279"/>
<path d="M468.18 119.24C470.798 119.24 472.92 117.118 472.92 114.5C472.92 111.882 470.798 109.76 468.18 109.76C465.562 109.76 463.44 111.882 463.44 114.5C463.44 117.118 465.562 119.24 468.18 119.24Z" fill="#1A4279"/>
<path d="M218.06 212.45C218.058 213.657 218.414 214.837 219.083 215.842C219.752 216.846 220.704 217.63 221.819 218.093C222.933 218.556 224.16 218.678 225.344 218.444C226.528 218.21 227.616 217.63 228.47 216.777C229.324 215.924 229.906 214.837 230.142 213.654C230.378 212.47 230.258 211.243 229.797 210.128C229.335 209.013 228.553 208.06 227.55 207.389C226.547 206.718 225.367 206.36 224.16 206.36C222.544 206.36 220.994 207.001 219.85 208.143C218.707 209.285 218.063 210.834 218.06 212.45Z" fill="#5C718C"/>
<path d="M233 189.77C233 190.302 233.158 190.822 233.453 191.265C233.749 191.707 234.169 192.052 234.661 192.255C235.152 192.459 235.693 192.512 236.215 192.408C236.737 192.305 237.216 192.048 237.592 191.672C237.968 191.296 238.225 190.817 238.328 190.295C238.432 189.773 238.379 189.232 238.175 188.741C237.972 188.249 237.627 187.829 237.184 187.533C236.742 187.238 236.222 187.08 235.69 187.08C234.977 187.08 234.292 187.363 233.788 187.868C233.283 188.372 233 189.057 233 189.77Z" fill="#5C718C"/>
<path d="M244.35 212.46C247.365 212.46 249.81 210.016 249.81 207C249.81 203.985 247.365 201.54 244.35 201.54C241.335 201.54 238.89 203.985 238.89 207C238.89 210.016 241.335 212.46 244.35 212.46Z" fill="#5C718C"/>
<path d="M714.65 352.74C714.652 353.812 714.336 354.861 713.741 355.754C713.147 356.647 712.301 357.343 711.311 357.755C710.321 358.166 709.231 358.275 708.179 358.067C707.127 357.859 706.16 357.344 705.401 356.586C704.642 355.829 704.125 354.863 703.915 353.811C703.705 352.76 703.812 351.669 704.222 350.678C704.632 349.687 705.326 348.84 706.218 348.244C707.109 347.648 708.158 347.33 709.23 347.33C710.666 347.33 712.043 347.9 713.059 348.914C714.075 349.928 714.647 351.304 714.65 352.74Z" fill="#5C718C"/>
<path d="M727.06 334.35C727.06 335.08 726.843 335.793 726.438 336.4C726.033 337.007 725.456 337.48 724.782 337.759C724.108 338.038 723.366 338.111 722.65 337.969C721.934 337.827 721.277 337.475 720.761 336.959C720.245 336.443 719.893 335.786 719.751 335.07C719.608 334.354 719.682 333.612 719.961 332.938C720.24 332.264 720.713 331.687 721.32 331.282C721.927 330.876 722.64 330.66 723.37 330.66C724.349 330.66 725.287 331.049 725.979 331.741C726.671 332.433 727.06 333.371 727.06 334.35Z" fill="#5C718C"/>
<path d="M733.66 352.37C733.662 352.885 733.511 353.389 733.226 353.818C732.941 354.247 732.535 354.582 732.06 354.78C731.584 354.978 731.06 355.031 730.555 354.931C730.05 354.831 729.586 354.583 729.221 354.218C728.857 353.854 728.609 353.39 728.509 352.885C728.409 352.38 728.462 351.856 728.66 351.38C728.858 350.905 729.193 350.499 729.622 350.214C730.051 349.929 730.555 349.778 731.07 349.78C731.757 349.78 732.416 350.053 732.901 350.539C733.387 351.024 733.66 351.683 733.66 352.37Z" fill="#5C718C"/>
<path d="M644.68 157.34C645.35 157.337 645.992 157.07 646.466 156.596C646.94 156.122 647.207 155.48 647.21 154.81V141.18C647.207 140.51 646.94 139.868 646.466 139.394C645.992 138.92 645.35 138.653 644.68 138.65C644.009 138.65 643.365 138.916 642.891 139.391C642.417 139.865 642.15 140.509 642.15 141.18V154.81C642.15 155.481 642.417 156.124 642.891 156.599C643.365 157.073 644.009 157.34 644.68 157.34Z" fill="#263F5C"/>
<path d="M635.33 148C635.33 148.671 635.597 149.314 636.071 149.789C636.546 150.263 637.189 150.53 637.86 150.53H651.49C652.158 150.525 652.796 150.256 653.266 149.782C653.736 149.308 654 148.668 654 148C653.997 147.33 653.73 146.688 653.256 146.214C652.782 145.74 652.14 145.473 651.47 145.47H637.86C637.19 145.473 636.548 145.74 636.074 146.214C635.6 146.688 635.333 147.33 635.33 148Z" fill="#263F5C"/>
<path d="M471.15 275.91C471.82 275.907 472.462 275.64 472.936 275.166C473.41 274.692 473.677 274.05 473.68 273.38V259.75C473.677 259.08 473.41 258.438 472.936 257.964C472.462 257.49 471.82 257.223 471.15 257.22C470.48 257.223 469.838 257.49 469.364 257.964C468.89 258.438 468.623 259.08 468.62 259.75V273.38C468.623 274.05 468.89 274.692 469.364 275.166C469.838 275.64 470.48 275.907 471.15 275.91Z" fill="#263F5C"/>
<path d="M461.8 266.56C461.8 267.234 462.068 267.88 462.544 268.356C463.02 268.832 463.666 269.1 464.34 269.1H478C478.672 269.097 479.315 268.829 479.79 268.353C480.264 267.876 480.53 267.232 480.53 266.56C480.533 266.226 480.469 265.894 480.343 265.584C480.218 265.274 480.032 264.992 479.797 264.755C479.562 264.517 479.282 264.328 478.974 264.198C478.665 264.069 478.334 264.001 478 264H464.34C464.005 264 463.673 264.066 463.363 264.195C463.054 264.324 462.773 264.513 462.537 264.751C462.301 264.989 462.114 265.271 461.988 265.582C461.861 265.892 461.797 266.225 461.8 266.56Z" fill="#263F5C"/>
<path d="M408.39 347.76C408.724 347.76 409.045 347.627 409.281 347.391C409.517 347.155 409.65 346.834 409.65 346.5V339.68C409.65 339.346 409.517 339.025 409.281 338.789C409.045 338.553 408.724 338.42 408.39 338.42C408.055 338.42 407.733 338.552 407.495 338.788C407.258 339.024 407.123 339.345 407.12 339.68V346.5C407.123 346.835 407.258 347.155 407.495 347.391C407.733 347.627 408.055 347.76 408.39 347.76Z" fill="#263F5C"/>
<path d="M403.72 343.09C403.72 343.424 403.853 343.745 404.089 343.981C404.325 344.217 404.646 344.35 404.98 344.35H411.8C412.134 344.35 412.455 344.217 412.691 343.981C412.927 343.745 413.06 343.424 413.06 343.09C413.06 342.755 412.928 342.433 412.692 342.196C412.456 341.958 412.135 341.823 411.8 341.82H405C404.832 341.819 404.666 341.851 404.511 341.914C404.356 341.977 404.214 342.07 404.095 342.189C403.976 342.307 403.882 342.447 403.818 342.602C403.753 342.757 403.72 342.922 403.72 343.09Z" fill="#263F5C"/>
<path d="M753.08 248.09C753.417 248.09 753.74 247.956 753.978 247.718C754.216 247.48 754.35 247.157 754.35 246.82V240C754.35 239.663 754.216 239.34 753.978 239.102C753.74 238.864 753.417 238.73 753.08 238.73C752.745 238.733 752.424 238.868 752.188 239.105C751.952 239.343 751.82 239.665 751.82 240V246.81C751.819 246.977 751.85 247.142 751.913 247.297C751.975 247.451 752.068 247.592 752.185 247.711C752.302 247.83 752.441 247.924 752.595 247.99C752.748 248.055 752.913 248.089 753.08 248.09Z" fill="#263F5C"/>
<path d="M748.41 243.42C748.413 243.755 748.548 244.075 748.785 244.311C749.023 244.547 749.345 244.68 749.68 244.68H756.49C756.823 244.677 757.142 244.544 757.378 244.308C757.614 244.072 757.747 243.753 757.75 243.42C757.75 243.085 757.618 242.763 757.382 242.525C757.146 242.288 756.825 242.153 756.49 242.15H749.68C749.343 242.15 749.02 242.284 748.782 242.522C748.544 242.76 748.41 243.083 748.41 243.42Z" fill="#263F5C"/>
<path d="M614.2 129.22C614.626 129.217 615.034 129.047 615.336 128.745C615.637 128.444 615.807 128.036 615.81 127.61V119C615.807 118.575 615.637 118.168 615.335 117.868C615.033 117.568 614.625 117.4 614.2 117.4C613.775 117.4 613.367 117.568 613.065 117.868C612.763 118.168 612.593 118.575 612.59 119V127.66C612.603 128.078 612.778 128.475 613.079 128.766C613.379 129.057 613.782 129.22 614.2 129.22Z" fill="#263F5C"/>
<path d="M608.26 123.28C608.263 123.706 608.433 124.114 608.734 124.415C609.036 124.717 609.444 124.887 609.87 124.89H618.53C618.956 124.887 619.364 124.717 619.666 124.415C619.967 124.114 620.137 123.706 620.14 123.28C620.137 122.855 619.967 122.448 619.665 122.148C619.363 121.848 618.955 121.68 618.53 121.68H609.87C609.445 121.68 609.037 121.848 608.735 122.148C608.433 122.448 608.263 122.855 608.26 123.28Z" fill="#263F5C"/>
<path d="M333.118 113.562L328.026 113.133L297.576 475.004L302.668 475.433L333.118 113.562Z" fill="#0C143B"/>
<path d="M400.735 116.96L395.643 116.531L365.192 478.403L370.284 478.831L400.735 116.96Z" fill="#0C143B"/>
<path d="M395.563 148.003L325.591 142.115L325.172 147.087L395.145 152.975L395.563 148.003Z" fill="#0C143B"/>
<path d="M392.028 189.959L322.055 184.071L321.636 189.044L391.609 194.932L392.028 189.959Z" fill="#0C143B"/>
<path d="M388.502 231.926L318.529 226.038L318.11 231.01L388.083 236.898L388.502 231.926Z" fill="#0C143B"/>
<path d="M384.976 273.882L315.003 267.994L314.584 272.966L384.557 278.854L384.976 273.882Z" fill="#0C143B"/>
<path d="M381.44 315.847L311.467 309.959L311.048 314.932L381.021 320.82L381.44 315.847Z" fill="#0C143B"/>
<path d="M380.101 357.905L309.881 352.287L309.482 357.277L379.702 362.895L380.101 357.905Z" fill="#0C143B"/>
<path d="M374.378 399.77L304.405 393.882L303.986 398.854L373.959 404.742L374.378 399.77Z" fill="#0C143B"/>
<path d="M370.852 441.726L300.879 435.838L300.46 440.81L370.433 446.698L370.852 441.726Z" fill="#0C143B"/>
<path d="M343.71 123.52C343.71 123.52 357.81 120.97 360.36 136.13C362.91 151.29 356.56 172.35 369.66 177.13C382.76 181.91 382.87 196.8 360.06 197.36C337.25 197.92 340.35 193.25 340.35 193.25L343.71 123.52Z" fill="#0E1325"/>
<path d="M346.09 123.36C346.09 123.36 325.43 121 322.88 136.13C320.33 151.26 326.69 172.35 313.59 177.13C300.49 181.91 300.38 196.8 323.18 197.36C345.98 197.92 342.9 193.25 342.9 193.25L346.09 123.36Z" fill="#0E1325"/>
<path d="M360.32 184.28C367.74 185.91 379.32 188.33 389.12 189.8C389.12 189.8 390.42 165.13 392.59 156.32L396.34 157.47C396.34 157.47 404.06 183.24 399.34 198.69C399.006 199.746 398.398 200.693 397.577 201.437C396.756 202.18 395.753 202.692 394.67 202.92C389.57 204.03 379 202.82 357.52 197.78C353.19 196.78 349.82 194.47 350.88 190.16C351.384 188.147 352.65 186.408 354.411 185.311C356.172 184.214 358.291 183.845 360.32 184.28Z" fill="#ECC4A1"/>
<path d="M392.42 158.44C391.733 157.826 391.275 156.997 391.121 156.089C390.967 155.18 391.125 154.247 391.57 153.44C393.22 150.55 391.96 147.18 393.33 146.23C394.45 145.46 395.4 147.56 395.42 149.31C395.42 150.58 394.71 152.03 395.04 151.96C396.15 151.569 397.158 150.933 397.99 150.1C398.8 149.04 402.46 143.46 402.59 143.18C403.59 141.11 404.59 141.78 404.59 141.78C406.14 142.52 403.88 146.35 403.27 147.42C402.34 149.03 400.6 151.6 400.6 151.6L400.8 151.8C400.8 151.8 408.69 145.63 409.1 145.32C409.193 145.223 409.305 145.146 409.429 145.094C409.553 145.041 409.686 145.014 409.82 145.014C409.954 145.014 410.087 145.041 410.211 145.094C410.335 145.146 410.447 145.223 410.54 145.32C410.8 145.63 410.94 146.25 410.22 147.14C408.035 149.742 405.633 152.154 403.04 154.35C403.04 154.35 407.84 151.29 410.04 150.66C410.76 150.46 411.91 150.1 412.21 150.9C412.51 151.7 411.06 152.65 410.84 152.79C408.628 154.248 406.304 155.529 403.89 156.62V156.97C403.89 156.97 409 157.82 410.48 157.97C410.62 157.97 411.33 157.97 411.41 158.64C411.54 159.64 410.57 159.64 410.41 159.64C408.418 159.857 406.412 159.927 404.41 159.85C403.769 159.788 403.126 159.94 402.58 160.28C401.29 161.1 398.78 162.4 396.39 161.98C395.441 161.879 394.548 161.484 393.835 160.849C393.123 160.214 392.628 159.371 392.42 158.44Z" fill="#ECC4A1"/>
<path d="M310 370.46L309.58 374.29C305.33 380.92 317.9 393.91 317.9 393.91L330.42 395.09C321.7 388.8 319.65 371.37 319.65 371.37L310 370.46Z" fill="#ECC4A1"/>
<path d="M309.61 374.29C309.61 374.29 304.12 375.69 304.83 388.29C304.99 391.07 304.96 394.29 305.14 398.1L310.01 398.56L310.94 388.74C310.94 388.74 313.09 399.13 319.51 399.9C323.83 400.41 330.41 401.01 334.25 401.35C334.719 401.388 335.188 401.269 335.583 401.012C335.977 400.755 336.276 400.374 336.431 399.93C336.586 399.485 336.59 399.002 336.442 398.555C336.293 398.108 336.001 397.723 335.61 397.46C334.14 396.55 332.565 395.822 330.92 395.29C327.4 394.05 324.66 394.49 320.92 391.49C315.23 386.91 310 378.84 309.61 374.29Z" fill="#B53E27"/>
<path d="M345.57 373.48L345.15 377.31C340.9 383.94 353.47 396.93 353.47 396.93L366 398.12C357.29 391.82 355.24 374.4 355.24 374.4L345.57 373.48Z" fill="#ECC4A1"/>
<path d="M345.15 377.31C345.15 377.31 339.66 378.71 340.37 391.31C340.52 394.1 340.5 397.31 340.67 401.12L345.54 401.58L346.48 391.76C346.48 391.76 348.62 402.15 355.05 402.92C359.37 403.44 365.94 404.04 369.79 404.37C370.259 404.408 370.728 404.289 371.123 404.032C371.517 403.775 371.816 403.394 371.971 402.95C372.126 402.505 372.13 402.022 371.982 401.575C371.833 401.128 371.541 400.743 371.15 400.48C369.677 399.576 368.103 398.848 366.46 398.31C362.93 397.07 360.2 397.51 356.46 394.51C350.77 389.93 345.51 381.86 345.15 377.31Z" fill="#B53E27"/>
<path d="M318.46 183.15C318.46 183.15 307.29 184.62 305.27 214.78C303.25 244.94 291.21 276.59 291.21 276.59L296.58 281.43C296.58 281.43 318.11 242.07 319.66 204.66L318.46 183.15Z" fill="#ECC4A1"/>
<path d="M329.26 147.76C331.31 150.67 331.81 155.48 329.4 157.15C326.99 158.82 322.59 156.69 320.53 153.78C318.47 150.87 318.77 147.16 321.18 145.5C323.59 143.84 327.21 144.85 329.26 147.76Z" fill="#DFB38C"/>
<path d="M364.32 251.54H343.96V251L315.34 250.86C300.6 264.78 307.82 375.46 307.82 375.46L321 377.77C334.47 305.54 338.82 277.52 338.82 277.52H340.01L341.48 277.59H341.99C341.99 277.59 345.33 321.33 342.25 379.91L356.66 381.45C356.66 381.45 376.93 300.68 364.32 251.54Z" fill="#FCB651"/>
<path d="M366.11 259.94C365.6 257.05 365.01 254.25 364.32 251.54H343.96V251L315.34 250.86C313.662 252.709 312.419 254.909 311.7 257.3C328.14 268.38 349.66 270.52 366.11 259.94Z" fill="#BA6919"/>
<path d="M357.48 183.29C342.74 178.29 347.18 163.29 347.18 163.29L332.42 162.92C332.42 162.92 336.09 178.19 321.12 182.39C320.19 182.65 319.31 182.92 318.46 183.18C329.95 195.18 349.33 192.72 360.04 184.43C360.045 184.363 360.045 184.296 360.04 184.23C359.24 183.89 358.38 183.59 357.48 183.29Z" fill="#ECC4A1"/>
<path d="M332.82 166.5C332.802 165.287 332.668 164.078 332.42 162.89L339.29 162.23V162.11L339.81 162.18L340.35 162.13V162.26L347.18 163.26C346.703 165.128 346.497 167.054 346.57 168.98C345 172 339.47 176.05 332.82 166.5Z" fill="#D29B70"/>
<path d="M357.71 138.75C358.18 144.96 358.35 158.32 352.37 163.99C344.51 171.45 331.37 166.58 328.37 158.65C325.76 151.81 326.08 139.4 331.17 131.37C333.8 127.21 339.17 124.27 345.7 124.77C355.32 125.51 357.56 136.8 357.71 138.75Z" fill="#ECC4A1"/>
<path d="M345.63 140.81C345.68 142.57 345.72 144.32 345.77 146.08L345.86 149.99C345.825 150.784 345.845 151.579 345.92 152.37C345.92 152.37 345.92 152.51 345.92 152.54C345.8 152.34 346.18 152.43 345.85 152.42C345.718 152.434 345.588 152.457 345.46 152.49L343.76 152.77C343.56 152.77 343.65 153.11 343.85 153.08L346.12 152.7C346.152 152.689 346.179 152.669 346.199 152.643C346.219 152.616 346.23 152.583 346.23 152.55C346.15 149.13 346.06 145.71 345.98 142.3C345.98 141.8 345.98 141.3 345.98 140.81C345.98 140.767 345.963 140.727 345.933 140.697C345.903 140.667 345.862 140.65 345.82 140.65C345.778 140.65 345.737 140.667 345.707 140.697C345.677 140.727 345.66 140.767 345.66 140.81H345.63Z" fill="#0C143B"/>
<path d="M337 153.93C337.077 154.615 336.943 155.306 336.616 155.913C336.289 156.519 335.785 157.011 335.171 157.323C334.556 157.634 333.861 157.751 333.179 157.657C332.497 157.563 331.859 157.262 331.352 156.796C330.846 156.329 330.493 155.719 330.343 155.047C330.192 154.375 330.251 153.672 330.511 153.034C330.77 152.396 331.219 151.853 331.796 151.477C332.373 151.101 333.051 150.91 333.74 150.93C334.151 150.913 334.562 150.976 334.948 151.118C335.334 151.259 335.689 151.475 335.992 151.754C336.295 152.033 336.54 152.368 336.713 152.742C336.886 153.115 336.983 153.519 337 153.93Z" fill="#D57F6D"/>
<path d="M356.15 154.42C356.225 155.102 356.09 155.791 355.763 156.394C355.437 156.997 354.934 157.486 354.321 157.796C353.709 158.106 353.017 158.221 352.337 158.127C351.658 158.033 351.023 157.733 350.518 157.269C350.013 156.804 349.662 156.196 349.512 155.527C349.362 154.858 349.419 154.158 349.677 153.522C349.935 152.887 350.381 152.345 350.955 151.969C351.529 151.593 352.204 151.402 352.89 151.42C353.301 151.403 353.712 151.466 354.098 151.608C354.485 151.749 354.839 151.965 355.142 152.244C355.445 152.523 355.69 152.858 355.863 153.232C356.036 153.605 356.133 154.009 356.15 154.42Z" fill="#D57F6D"/>
<path d="M334.78 142.79C334.88 143.43 336.12 143.14 337.65 142.89C339.18 142.64 340.45 142.52 340.34 141.89C340.23 141.26 338.9 140.89 337.34 141.18C335.78 141.47 334.67 142.14 334.78 142.79Z" fill="#09489D"/>
<path d="M349.38 141C349.23 141.64 350.49 141.83 352.01 142.16C353.53 142.49 354.74 142.85 354.89 142.22C355.04 141.59 353.89 140.79 352.39 140.46C350.89 140.13 349.52 140.37 349.38 141Z" fill="#09489D"/>
<path d="M369.66 250.9C367.27 243.79 364.98 238.52 363.97 236.13C361.65 230.63 364.66 217.95 366.16 212.43C367.083 209.157 367.537 205.77 367.51 202.37C367.32 189.25 360.06 184.2 360.06 184.2C343.69 194.94 318.46 183.2 318.46 183.2C311.75 206.87 324.05 212.74 313.04 237.81C310.92 242.78 309.162 247.896 307.78 253.12C322.92 260.88 359.84 263.11 369.66 250.9Z" fill="#83B7F3"/>
<path d="M337.4 148.45C337.4 149.45 337.84 150.23 338.4 150.24C338.96 150.25 339.49 149.48 339.51 148.5C339.53 147.52 339.08 146.72 338.51 146.71C337.94 146.7 337.43 147.47 337.4 148.45Z" fill="#0C143B"/>
<path d="M348.29 148.73C348.29 149.73 348.72 150.51 349.29 150.52C349.86 150.53 350.37 149.76 350.4 148.78C350.43 147.8 349.97 147 349.4 146.98C348.83 146.96 348.32 147.75 348.29 148.73Z" fill="#0C143B"/>
<path d="M299.83 272.88C300.896 273.021 301.881 273.525 302.62 274.306C303.359 275.087 303.808 276.098 303.89 277.17C304.17 281 307.54 283.41 306.89 285.17C306.31 286.64 304.05 285.23 302.89 283.58C302.06 282.37 301.81 280.51 301.54 280.8C300.729 281.889 300.176 283.147 299.92 284.48C299.82 286.01 299.92 293.7 299.92 294.05C300.29 296.68 298.92 296.64 298.92 296.64C296.92 296.93 296.66 291.82 296.56 290.4C296.41 288.26 296.42 284.68 296.42 284.68L296.1 284.62C296.1 284.62 292.52 295.62 292.33 296.16C292.272 296.464 292.097 296.734 291.843 296.911C291.589 297.088 291.276 297.16 290.97 297.11C290.52 296.99 289.97 296.48 290.11 295.17C290.31 293.17 291.35 286.26 292.34 283.65C292.34 283.65 289.72 289.65 288.05 291.65C287.5 292.3 286.63 293.38 285.82 292.82C285.01 292.26 285.82 290.4 285.91 290.12C287.094 287.307 288.498 284.592 290.11 282L289.86 281.66C289.86 281.66 284.42 284.14 282.93 284.97C282.79 285.05 282.08 285.47 281.6 284.97C280.85 284.12 281.75 283.45 281.92 283.31C283.685 281.829 285.553 280.476 287.51 279.26C288.166 278.905 288.687 278.342 288.99 277.66C289.7 276.06 291.26 273.19 293.82 272.06C294.784 271.561 295.879 271.372 296.955 271.519C298.031 271.665 299.035 272.141 299.83 272.88Z" fill="#ECC4A1"/>
<path d="M347.68 155.49C346.437 156.036 345.09 156.301 343.733 156.266C342.376 156.232 341.043 155.899 339.83 155.29C339.83 155.29 339.23 159.29 343.27 159.64C347.94 160.09 347.68 155.49 347.68 155.49Z" fill="#6D2D25"/>
<mask id="mask1_52_2374" style="mask-type:luminance" maskUnits="userSpaceOnUse" x="339" y="155" width="9" height="5">
<path d="M347.68 155.49C346.437 156.036 345.09 156.301 343.733 156.266C342.376 156.232 341.043 155.899 339.83 155.29C339.83 155.29 339.23 159.29 343.27 159.64C347.94 160.09 347.68 155.49 347.68 155.49Z" fill="white"/>
</mask>
<g mask="url(#mask1_52_2374)">
<path d="M346.68 160C346.68 160 346.17 158.07 343.48 158.11C342.745 158.089 342.015 158.247 341.355 158.571C340.695 158.896 340.123 159.376 339.69 159.97C339.69 159.97 343.15 163.11 346.68 160Z" fill="#D57F6D"/>
<path d="M340.46 155.31C340.46 155.31 340.25 156.91 343.81 156.99C347.37 157.07 346.95 155.25 346.95 155.25L340.46 155.31Z" fill="white"/>
</g>
<path d="M344.38 161.19C344.38 161.34 344.07 161.46 343.7 161.45C343.33 161.44 343.03 161.31 343.04 161.16C343.05 161.01 343.34 160.88 343.72 160.89C344.1 160.9 344.38 161 344.38 161.19Z" fill="#D29B70"/>
<path d="M308 197.86C308 197.86 308.2 184.86 319.21 181.86C319.21 181.86 329.74 179.07 331.86 173C331.86 173 334.5 175.83 347.47 173.93C347.47 173.93 348.72 177.54 354.55 181.01C357.38 182.667 360.487 183.799 363.72 184.35C366.12 184.78 369.14 185.3 370.37 185.42L371.27 200.77L358.65 201.6L318.5 203.29C318.5 203.29 311.92 201.48 308 197.86Z" fill="#83B7F3"/>
<path d="M324.65 143.65C324.65 143.65 325.92 153.97 327.2 154.34C328.48 154.71 335.2 130.34 335.2 130.34C335.2 130.34 340.26 131.27 339.2 138.28C339.2 138.28 345.49 139.98 348.68 138.35C351.87 136.72 348.68 128.43 348.68 128.43C348.68 128.43 352.85 131.9 350.63 138.49C350.63 138.49 358.32 141.61 358.53 137.64C358.74 133.67 354 118.23 334.22 126.09C334.28 126.14 322 127.7 324.65 143.65Z" fill="#0E1325"/>
<path d="M427.35 103.43C427.352 98.934 426.274 94.5034 424.206 90.5112C422.138 86.5191 419.141 83.0822 415.468 80.4901C411.794 77.898 407.552 76.2265 403.097 75.6165C398.643 75.0064 394.107 75.4756 389.872 76.9846C385.637 78.4936 381.827 80.9981 378.761 84.2873C375.696 87.5765 373.467 91.554 372.26 95.885C371.053 100.216 370.904 104.773 371.827 109.174C372.749 113.574 374.715 117.688 377.56 121.17C383.666 128.501 388.929 136.494 393.25 145L394.14 146.81H404.44L405.34 145C409.559 136.56 414.762 128.648 420.84 121.43C425.064 116.385 427.37 110.01 427.35 103.43Z" fill="#FCB651"/>
<path d="M402.4 153.85H396.18C395.909 153.85 395.642 153.797 395.392 153.693C395.142 153.59 394.915 153.438 394.723 153.247C394.532 153.055 394.38 152.828 394.277 152.578C394.173 152.328 394.12 152.061 394.12 151.79C394.12 151.244 394.337 150.72 394.723 150.333C395.11 149.947 395.634 149.73 396.18 149.73H402.4C402.947 149.73 403.472 149.947 403.86 150.333C404.248 150.719 404.467 151.243 404.47 151.79C404.467 152.337 404.248 152.861 403.86 153.247C403.472 153.633 402.947 153.85 402.4 153.85Z" fill="#0C143B"/>
<path d="M401 144.79C401 144.79 400.64 114.74 408.74 111.08C416.69 107.48 416.94 123.85 401.42 125.52C400.779 125.582 400.134 125.608 399.49 125.6H399.19C398.549 125.608 397.908 125.582 397.27 125.52C381.75 123.85 381.99 107.52 389.94 111.08C398.05 114.74 397.69 144.79 397.69 144.79" stroke="white" stroke-width="0.76" stroke-miterlimit="10"/>
<path d="M405.37 148H393.21C392.939 148 392.672 147.947 392.422 147.843C392.172 147.74 391.945 147.588 391.753 147.397C391.562 147.205 391.41 146.978 391.307 146.728C391.203 146.478 391.15 146.21 391.15 145.94C391.15 145.669 391.203 145.401 391.307 145.152C391.41 144.902 391.562 144.675 391.753 144.483C391.945 144.292 392.172 144.14 392.422 144.037C392.672 143.933 392.939 143.88 393.21 143.88H405.37C405.917 143.88 406.442 144.097 406.83 144.483C407.218 144.869 407.437 145.393 407.44 145.94C407.437 146.487 407.218 147.011 406.83 147.397C406.442 147.783 405.917 148 405.37 148Z" fill="#0C143B"/>
<path d="M382.23 86.12C378.11 90.78 377.43 96.91 380.72 99.82C384.01 102.73 390.02 101.3 394.13 96.64C398.24 91.98 398.93 85.85 395.64 82.94C392.35 80.03 386.34 81.46 382.23 86.12Z" fill="#F1CB6F"/>
<g filter="url(#filter0_f_52_2374)">
<path fill-rule="evenodd" clip-rule="evenodd" d="M338.335 169.762C341.971 168.59 344.762 167.16 345.682 166.606L346.198 167.462C345.21 168.058 342.348 169.519 338.642 170.714L338.335 169.762Z" fill="url(#paint0_linear_52_2374)"/>
</g>
<defs>
<filter id="filter0_f_52_2374" x="334.335" y="162.606" width="15.8629" height="12.1084" filterUnits="userSpaceOnUse" color-interpolation-filters="sRGB">
<feFlood flood-opacity="0" result="BackgroundImageFix"/>
<feBlend mode="normal" in="SourceGraphic" in2="BackgroundImageFix" result="shape"/>
<feGaussianBlur stdDeviation="2" result="effect1_foregroundBlur_52_2374"/>
</filter>
<linearGradient id="paint0_linear_52_2374" x1="344.599" y1="167.181" x2="341.663" y2="171.809" gradientUnits="userSpaceOnUse">
<stop stop-color="#B9DC46"/>
<stop offset="1" stop-color="#30A368"/>
</linearGradient>
</defs>
</svg>
