<svg width="652" height="379" viewBox="0 0 652 379" fill="none" xmlns="http://www.w3.org/2000/svg">
<path d="M326 368.564C484.439 368.564 612.879 358.303 612.879 345.645C612.879 332.988 484.439 322.727 326 322.727C167.561 322.727 39.1208 332.988 39.1208 345.645C39.1208 358.303 167.561 368.564 326 368.564Z" fill="#DAE6F0"/>
<path d="M166.523 214.773C197.179 184.117 197.179 134.414 166.523 103.758C135.867 73.102 86.1637 73.102 55.5076 103.758C24.8516 134.414 24.8516 184.117 55.5076 214.773C86.1637 245.429 135.867 245.429 166.523 214.773Z" stroke="#263F5C" stroke-miterlimit="10" stroke-linecap="round" stroke-dasharray="5 5 5 5 5 5"/>
<path d="M596.492 300.117C627.148 269.461 627.148 219.758 596.492 189.102C565.836 158.445 516.133 158.446 485.477 189.102C454.821 219.758 454.821 269.461 485.477 300.117C516.133 330.773 565.836 330.773 596.492 300.117Z" stroke="#263F5C" stroke-miterlimit="10" stroke-linecap="round" stroke-dasharray="5 5 5 5 5 5"/>
<path d="M341.647 88.1101C341.647 82.88 340.39 77.7263 337.983 73.083C335.576 68.4397 332.088 64.4425 327.814 61.4279C323.54 58.4133 318.605 56.4695 313.423 55.7601C308.241 55.0506 302.965 55.5963 298.038 57.3511C293.111 59.106 288.677 62.0187 285.111 65.8442C281.544 69.6696 278.949 74.2958 277.543 79.3335C276.137 84.3712 275.961 89.6728 277.031 94.7924C278.102 99.9119 280.386 104.699 283.692 108.752C290.803 117.27 296.931 126.563 301.96 136.454L303.001 138.555H314.986L316.027 136.445C320.946 126.623 327.003 117.414 334.075 109.008C338.979 103.15 341.66 95.75 341.647 88.1101Z" fill="#FCB651"/>
<path d="M312.612 146.78H305.367C304.732 146.78 304.124 146.528 303.675 146.079C303.227 145.631 302.975 145.022 302.975 144.388C302.974 144.073 303.035 143.761 303.154 143.47C303.274 143.179 303.45 142.914 303.672 142.691C303.894 142.468 304.159 142.291 304.449 142.17C304.74 142.05 305.052 141.988 305.367 141.988H312.612C313.249 141.988 313.859 142.24 314.309 142.691C314.76 143.141 315.012 143.751 315.012 144.388C315.012 144.703 314.95 145.015 314.83 145.305C314.709 145.596 314.532 145.86 314.309 146.082C314.086 146.304 313.821 146.48 313.53 146.6C313.239 146.72 312.927 146.781 312.612 146.78Z" fill="#0C143B"/>
<path d="M310.918 136.243C310.918 136.243 310.494 101.269 319.937 96.9973C329.186 92.8141 329.468 111.876 311.403 113.818C310.658 113.89 309.91 113.923 309.161 113.915H308.817C308.072 113.931 307.327 113.907 306.584 113.844C288.528 111.903 288.811 92.8406 298.059 97.0237C307.493 101.295 307.079 136.269 307.079 136.269" stroke="white" stroke-miterlimit="10"/>
<path d="M316.071 139.967H301.951C301.315 139.967 300.704 139.714 300.254 139.264C299.804 138.813 299.551 138.203 299.551 137.566C299.551 137.251 299.613 136.94 299.734 136.649C299.854 136.358 300.031 136.094 300.254 135.872C300.477 135.65 300.742 135.474 301.033 135.354C301.325 135.234 301.636 135.173 301.951 135.175H316.071C316.386 135.173 316.698 135.234 316.989 135.354C317.281 135.474 317.545 135.65 317.768 135.872C317.991 136.094 318.168 136.358 318.289 136.649C318.41 136.94 318.472 137.251 318.472 137.566C318.472 138.203 318.219 138.813 317.769 139.264C317.319 139.714 316.708 139.967 316.071 139.967Z" fill="#0C143B"/>
<path d="M290.505 67.7859C285.598 72.9663 284.575 79.9646 288.228 83.4329C291.882 86.9012 298.818 85.5156 303.725 80.3441C308.632 75.1725 309.664 68.1654 306.011 64.6971C302.357 61.2288 295.421 62.6585 290.505 67.7859Z" fill="#F1CB6F"/>
<path d="M300.61 203.225V141.246H246.238C246.238 128.572 241.203 116.417 232.241 107.455C223.279 98.4931 211.124 93.4583 198.45 93.4583C185.776 93.4583 173.621 98.4931 164.659 107.455C155.697 116.417 150.662 128.572 150.662 141.246H96.2901V203.225C108.853 203.396 120.843 208.507 129.667 217.451C138.491 226.395 143.438 238.454 143.438 251.018C143.438 263.582 138.491 275.641 129.667 284.585C120.843 293.529 108.853 298.64 96.2901 298.811V345.584H300.61V298.811C294.279 298.897 287.994 297.724 282.12 295.361C276.246 292.998 270.9 289.491 266.393 285.044C261.886 280.598 258.307 275.3 255.864 269.459C253.421 263.618 252.163 257.349 252.163 251.018C252.163 244.687 253.421 238.418 255.864 232.577C258.307 226.736 261.886 221.438 266.393 216.992C270.9 212.545 276.246 209.038 282.12 206.675C287.994 204.312 294.279 203.139 300.61 203.225Z" fill="#5C718C"/>
<path d="M542.428 203.225V141.246H488.056C488.056 128.572 483.021 116.417 474.059 107.455C465.097 98.4931 452.942 93.4583 440.268 93.4583C427.594 93.4583 415.438 98.4931 406.476 107.455C397.514 116.417 392.48 128.572 392.48 141.246H338.108V203.225C325.545 203.396 313.554 208.507 304.731 217.451C295.907 226.395 290.96 238.454 290.96 251.018C290.96 263.582 295.907 275.641 304.731 284.585C313.554 293.529 325.545 298.64 338.108 298.811V345.584H392.524C392.524 345.01 392.48 344.437 392.48 343.819C392.48 331.145 397.514 318.989 406.476 310.027C415.438 301.065 427.594 296.031 440.268 296.031C452.942 296.031 465.097 301.065 474.059 310.027C483.021 318.989 488.056 331.145 488.056 343.819C488.056 344.401 488.056 344.975 488.056 345.584H542.472V298.811C529.909 298.64 517.918 293.529 509.095 284.585C500.271 275.641 495.324 263.582 495.324 251.018C495.324 238.454 500.271 226.395 509.095 217.451C517.918 208.507 529.909 203.396 542.472 203.225H542.428Z" fill="#1A4279"/>
<path d="M480.784 235.817V214.354H466.046C465.045 209.639 463.305 205.112 460.892 200.94L471.721 190.111L456.55 174.941L446.119 185.328C442.079 182.699 437.65 180.721 432.996 179.468V164.201H411.542V178.939C406.822 179.934 402.291 181.673 398.119 184.093L387.29 173.255L372.12 188.435L382.551 198.857C379.918 202.895 377.94 207.324 376.691 211.98H361.38V233.443H376.118C377.119 238.158 378.858 242.685 381.272 246.857L370.443 257.694L385.614 272.874L396.045 262.442C400.084 265.069 404.513 267.041 409.168 268.284V283.587H430.622V268.849C435.339 267.856 439.867 266.116 444.036 263.695L454.847 274.541L470.017 259.362L459.612 248.94C462.235 244.901 464.201 240.471 465.437 235.817H480.784ZM421.082 247.475C416.417 247.477 411.857 246.095 407.978 243.504C404.099 240.914 401.075 237.231 399.289 232.922C397.503 228.613 397.035 223.871 397.945 219.296C398.854 214.721 401.101 210.518 404.399 207.22C407.697 203.921 411.9 201.675 416.475 200.766C421.05 199.856 425.792 200.324 430.101 202.11C434.41 203.896 438.093 206.919 440.683 210.799C443.274 214.678 444.656 219.238 444.654 223.903C444.654 230.154 442.17 236.15 437.75 240.571C433.329 244.991 427.333 247.475 421.082 247.475Z" fill="white"/>
<path d="M418.081 87.413L424.912 75.2519L416.563 70.6011C417.498 67.6085 417.953 64.4871 417.914 61.3523L427.507 58.7048L423.738 45.2641L414.498 47.8587C413.051 45.0793 411.171 42.5473 408.93 40.3573L413.801 31.6733L401.64 24.7103L396.945 33.0677C393.95 32.1513 390.828 31.7135 387.696 31.7704L385.005 22.1775L371.564 25.9458L374.159 35.1858C371.379 36.6333 368.847 38.5129 366.657 40.7544L357.973 35.8741L351.134 48.044L359.535 52.7213C358.601 55.7139 358.145 58.8353 358.185 61.9701L348.592 64.6176L352.36 78.0583L361.6 75.4637C363.048 78.2431 364.928 80.7751 367.169 82.9651L362.289 91.649L374.459 98.4797L379.154 90.1311C382.146 91.0654 385.268 91.5211 388.402 91.4813L391.05 101.074L404.491 97.3059L401.896 88.1101C404.675 86.6626 407.207 84.783 409.397 82.5415L418.081 87.413ZM380.513 75.0136C377.871 73.5272 375.728 71.2908 374.357 68.5872C372.986 65.8835 372.447 62.834 372.809 59.8242C373.171 56.8143 374.417 53.9793 376.39 51.6776C378.363 49.3759 380.974 47.7107 383.893 46.8928C386.812 46.0748 389.908 46.1407 392.789 47.0821C395.671 48.0235 398.209 49.7982 400.082 52.1818C401.955 54.5654 403.079 57.4508 403.313 60.4733C403.546 63.4958 402.878 66.5197 401.393 69.1626C399.399 72.7064 396.079 75.3134 392.164 76.4106C388.249 77.5078 384.058 77.0053 380.513 75.0136Z" fill="#5C718C"/>
<path d="M559.742 110.553L564.349 97.3855L555.303 94.2172C555.701 91.1065 555.606 87.9525 555.021 84.8714L563.996 80.5471L557.942 67.9536L549.276 72.1367C547.36 69.6557 545.067 67.4907 542.481 65.7208L545.763 56.3221L532.614 51.7153L529.455 60.7611C526.344 60.3634 523.19 60.4587 520.109 61.0435L515.784 52.0683L503.217 58.1224L507.374 66.771C504.889 68.6819 502.723 70.9756 500.958 73.5664L491.559 70.2746L486.953 83.4505L495.999 86.6188C495.601 89.7266 495.696 92.8777 496.281 95.9558L487.306 100.28L493.36 112.856L502.008 108.69C503.919 111.176 506.213 113.341 508.804 115.106L505.512 124.505L518.688 129.112L521.856 120.066C524.964 120.464 528.115 120.368 531.193 119.784L535.517 128.759L548.093 122.669L543.928 114.03C546.409 112.114 548.574 109.821 550.344 107.234L559.742 110.553ZM520.585 104.887C517.721 103.885 515.219 102.057 513.394 99.633C511.57 97.2091 510.505 94.2985 510.335 91.2694C510.164 88.2402 510.896 85.2286 512.438 82.6155C513.979 80.0023 516.261 77.905 518.995 76.5889C521.728 75.2727 524.791 74.7968 527.795 75.2213C530.799 75.6459 533.61 76.9518 535.871 78.9739C538.133 80.996 539.744 83.6435 540.501 86.5814C541.258 89.5194 541.127 92.6159 540.124 95.4792C538.78 99.3171 535.966 102.464 532.302 104.228C528.639 105.992 524.424 106.229 520.585 104.887Z" fill="#1A4279"/>
<path d="M371.732 166.416C371.732 166.416 389.956 167.783 398.922 166.301C398.922 166.301 397.519 171.525 384.59 171.49C371.661 171.455 371.732 166.416 371.732 166.416Z" fill="#477DA1"/>
<path d="M409.839 176.856C410.068 185.434 410.571 198.795 411.604 209.915C411.604 209.915 438.962 204.62 449.243 204.62L449.005 209.032C449.005 209.032 422.856 224.512 404.641 223.55C403.393 223.47 402.189 223.06 401.152 222.362C400.114 221.665 399.281 220.704 398.737 219.578C396.089 214.283 394.571 202.387 394.245 177.474C394.183 172.452 395.771 168.137 400.793 168.119C403.143 168.106 405.404 169.013 407.094 170.646C408.785 172.278 409.77 174.507 409.839 176.856Z" fill="#934545"/>
<path d="M443.489 206.226C443.176 205.22 443.22 204.138 443.612 203.16C444.004 202.183 444.721 201.371 445.642 200.86C448.943 199.042 449.711 195.062 451.573 194.956C453.117 194.868 452.791 197.454 451.785 199.139C451.043 200.375 449.499 201.354 449.861 201.478C451.16 201.754 452.505 201.736 453.797 201.425C455.2 200.887 462.013 197.657 462.304 197.471C464.484 196.068 465.005 197.268 465.005 197.268C466.064 198.901 461.633 201.248 460.407 201.919C458.562 202.925 455.376 204.381 455.376 204.381L455.456 204.69L467.264 203.331C467.56 203.261 467.871 203.308 468.133 203.463C468.395 203.617 468.586 203.868 468.667 204.161C468.738 204.602 468.508 205.29 467.29 205.714C465.446 206.349 458.854 208.256 456.127 208.432C456.127 208.432 462.551 208.308 465.005 208.979C465.817 209.209 467.131 209.544 466.955 210.497C466.761 211.583 464.819 211.494 464.519 211.512C461.53 211.606 458.538 211.467 455.571 211.097L455.376 211.45C455.376 211.45 461.951 210.991 461.889 212.827C461.845 213.939 460.486 213.665 460.054 213.639C458.368 213.533 452.861 213.86 452.111 213.868C450.39 213.868 447.196 213.683 445.148 211.865C444.329 211.207 443.73 210.314 443.434 209.306C443.137 208.298 443.156 207.223 443.489 206.226Z" fill="#934545"/>
<path d="M376.665 141.979C378.545 144.503 379.092 148.739 377 150.265C374.909 151.792 370.982 150.01 369.058 147.486C367.134 144.962 367.354 141.687 369.446 140.169C371.538 138.652 374.794 139.437 376.665 141.979Z" fill="#874545"/>
<path d="M374.688 145.765C374.389 145.379 374.042 145.032 373.656 144.732C372.858 144.079 371.913 143.63 370.902 143.426C370.726 143.426 370.655 143.665 370.831 143.7C371.806 143.887 372.716 144.319 373.479 144.953C373.729 145.154 373.965 145.373 374.185 145.606C374.247 145.677 374.317 145.747 374.37 145.818L374.423 145.88C374.529 146.021 374.776 145.88 374.67 145.738L374.688 145.765Z" fill="#0C143B"/>
<path d="M408.956 232.763L390.988 233.196V232.763L365.731 233.284C353.04 245.895 360.577 353.412 360.577 353.412L372.323 353.271C382.578 289.235 387.026 256.265 387.026 256.265H388.076H389.841C392.689 288.513 393.723 320.897 392.939 353.262L404.879 353.218C404.879 353.218 423.809 274.321 408.956 232.763Z" fill="#F1CB6F"/>
<path d="M390.979 233.196V232.763L365.722 233.284C364.098 234.908 362.801 238.085 361.777 242.4C376.559 252.452 396.998 251.64 411.604 242.1C410.913 238.937 410.029 235.818 408.956 232.763L390.979 233.196Z" fill="#FCB651"/>
<path d="M401.375 172.699C388.261 168.648 391.835 155.26 391.835 155.26H378.809C378.809 155.26 382.384 168.648 369.269 172.699C368.449 172.946 367.681 173.202 366.94 173.458C377.344 183.748 394.395 181.18 403.652 173.617V173.44C402.94 173.193 402.181 172.946 401.375 172.699Z" fill="#B26666"/>
<path d="M379.233 158.438C379.193 157.368 379.051 156.304 378.809 155.261L384.855 154.528V154.44L385.322 154.502L385.79 154.44V154.555L391.835 155.287C391.455 156.944 391.315 158.647 391.421 160.344C390.097 163 385.322 166.716 379.233 158.438Z" fill="#874545"/>
<path d="M400.572 133.392C401.128 138.864 401.578 150.645 396.433 155.781C389.664 162.541 377.953 158.544 375.103 151.616C372.641 145.632 372.649 134.68 376.956 127.479C379.189 123.746 383.866 121.037 389.629 121.302C398.172 121.787 400.405 131.671 400.572 133.392Z" fill="#B26666"/>
<path d="M389.355 135.475L389.594 140.117C389.647 141.264 389.708 142.403 389.77 143.55L389.832 144.883C389.82 145.151 389.835 145.42 389.876 145.686C389.876 145.686 389.876 145.792 389.876 145.827C389.77 145.659 390.106 145.721 389.814 145.721C389.708 145.721 389.585 145.774 389.47 145.792L387.979 146.083C387.802 146.083 387.882 146.383 388.058 146.348L390.053 145.959C390.082 145.953 390.108 145.936 390.126 145.912C390.144 145.887 390.153 145.857 390.15 145.827C389.997 142.809 389.844 139.791 389.691 136.772C389.691 136.34 389.647 135.89 389.629 135.475C389.629 135.299 389.338 135.299 389.347 135.475H389.355Z" fill="#0C143B"/>
<path d="M383.813 147.256C383.903 147.858 383.807 148.474 383.537 149.02C383.267 149.566 382.837 150.016 382.303 150.31C381.77 150.604 381.16 150.727 380.554 150.664C379.948 150.601 379.376 150.354 378.915 149.957C378.454 149.559 378.126 149.03 377.974 148.44C377.823 147.85 377.855 147.228 378.067 146.657C378.28 146.087 378.662 145.594 379.162 145.247C379.662 144.9 380.257 144.714 380.866 144.715C381.593 144.663 382.311 144.902 382.863 145.378C383.415 145.854 383.757 146.529 383.813 147.256Z" fill="#874545"/>
<path d="M398.834 147.256C398.924 147.858 398.827 148.474 398.557 149.02C398.287 149.566 397.857 150.016 397.324 150.31C396.79 150.604 396.18 150.727 395.574 150.664C394.969 150.601 394.397 150.354 393.936 149.957C393.474 149.559 393.146 149.03 392.995 148.44C392.843 147.85 392.876 147.228 393.088 146.657C393.3 146.087 393.682 145.594 394.182 145.247C394.683 144.9 395.277 144.714 395.886 144.715C396.613 144.663 397.331 144.902 397.884 145.378C398.436 145.854 398.777 146.529 398.834 147.256Z" fill="#874545"/>
<path d="M380.027 138.325C380.142 138.89 381.219 138.608 382.569 138.325C383.919 138.043 385.031 137.937 384.925 137.372C384.819 136.807 383.628 136.551 382.278 136.807C380.927 137.063 379.921 137.751 380.027 138.325Z" fill="#0C143B"/>
<path d="M392.497 137.187C392.383 137.752 393.495 137.893 394.845 138.158C396.195 138.422 397.272 138.705 397.386 138.158C397.501 137.61 396.504 136.922 395.145 136.657C393.786 136.392 392.612 136.622 392.497 137.187Z" fill="#0C143B"/>
<path d="M409.68 183.81C409.256 178.974 408.171 174.306 405.541 170.237C403.074 169.186 400.71 167.907 398.481 166.416C390.22 169.646 379.868 169.884 371.723 166.416C369.574 167.916 367.28 169.196 364.874 170.237C362.227 174.306 361.159 178.974 360.736 183.81C360.232 189.503 357.082 236.761 357.082 236.761C364.68 241.686 375.085 243.354 384.616 243.636H385.799C395.321 243.354 405.903 241.642 413.501 236.717C413.501 236.717 411.877 213.048 410.721 197.189C410.253 190.623 409.839 185.478 409.68 183.81Z" fill="#95C0F8"/>
<path opacity="0.4" d="M358.997 208.565C358.053 222.42 357.091 236.805 357.091 236.805C364.689 241.73 375.094 243.397 384.625 243.68H385.808C395.33 243.397 405.911 241.685 413.51 236.761C413.51 236.761 412.398 220.62 411.365 206.067C396.036 216.543 374.688 217.981 358.997 208.565Z" fill="#95C0F8"/>
<path d="M382.878 142.403C382.878 143.285 383.293 143.965 383.813 143.965C384.334 143.965 384.758 143.267 384.758 142.403C384.758 141.538 384.334 140.849 383.813 140.849C383.293 140.849 382.878 141.547 382.878 142.403Z" fill="#0C143B"/>
<path d="M392.488 142.403C392.488 143.285 392.912 143.965 393.424 143.965C393.936 143.965 394.368 143.267 394.368 142.403C394.368 141.538 393.945 140.849 393.424 140.849C392.903 140.849 392.488 141.547 392.488 142.403Z" fill="#0C143B"/>
<path d="M414.781 191.161C414.781 191.161 414.313 195.848 406.026 198.451L396.786 180.351L398.489 166.416C398.489 166.416 412.089 161.73 414.781 191.161Z" fill="#95C0F8"/>
<path d="M423.738 360.481C418.717 356.412 407.112 353.897 407.112 353.897L404.852 353.271L392.912 353.315C393.194 358.221 393.442 362.06 393.574 362.713C393.918 364.346 414.49 363.878 422.653 363.596C423.01 363.586 423.357 363.467 423.645 363.256C423.934 363.044 424.151 362.75 424.269 362.412C424.387 362.075 424.399 361.709 424.304 361.364C424.21 361.019 424.012 360.711 423.738 360.481Z" fill="#0E1325"/>
<path d="M374.759 353.888L372.314 353.262C367.557 353.262 365.325 353.394 360.568 353.403C360.841 358.266 361.089 362.06 361.23 362.705C361.565 364.337 382.137 363.87 390.3 363.587C390.666 363.585 391.022 363.47 391.32 363.257C391.617 363.044 391.841 362.743 391.961 362.397C392.08 362.051 392.089 361.676 391.985 361.325C391.882 360.974 391.673 360.663 391.385 360.437C386.364 356.412 374.759 353.888 374.759 353.888Z" fill="#0E1325"/>
<path d="M389.47 153.496C389.47 153.628 389.205 153.743 388.879 153.743C388.552 153.743 388.288 153.628 388.288 153.496C388.288 153.363 388.552 153.249 388.879 153.249C389.205 153.249 389.47 153.354 389.47 153.496Z" fill="#874545"/>
<path d="M392.356 147.768C391.259 148.247 390.07 148.479 388.873 148.449C387.676 148.418 386.5 148.126 385.428 147.592C385.428 147.592 384.89 151.122 388.464 151.431C392.577 151.793 392.356 147.768 392.356 147.768Z" fill="#6D2D25"/>
<mask id="mask0_486_735" style="mask-type:luminance" maskUnits="userSpaceOnUse" x="385" y="147" width="8" height="5">
<path d="M392.356 147.768C391.259 148.247 390.07 148.479 388.873 148.449C387.676 148.418 386.5 148.126 385.428 147.592C385.428 147.592 384.89 151.122 388.464 151.431C392.577 151.793 392.356 147.768 392.356 147.768Z" fill="white"/>
</mask>
<g mask="url(#mask0_486_735)">
<path d="M391.474 151.793C391.474 151.793 391.015 150.089 388.65 150.125C387.998 150.106 387.352 150.249 386.768 150.54C386.185 150.83 385.682 151.261 385.305 151.793C385.305 151.793 388.358 154.493 391.474 151.793Z" fill="#D57F6D"/>
<path d="M386.011 147.61C386.011 147.61 385.825 149.022 388.958 149.092C392.091 149.163 391.738 147.557 391.738 147.557L386.011 147.61Z" fill="white"/>
</g>
<path d="M410.668 196.66L409.018 182.292C409.018 182.292 408.268 193.218 410.668 196.66Z" fill="#95C0F8"/>
<path d="M397.951 205.053L458.139 200.322L461.916 202.82L418.761 206.994L397.951 205.053Z" fill="#1A4279"/>
<path d="M474.862 205.043H397.951V208.944H474.862V205.043Z" fill="#1A4279"/>
<path d="M477.413 165.445H421.788V208.953H477.413V165.445Z" fill="#1A4279"/>
<path d="M479.204 165.445H424.444V208.953H479.204V165.445Z" fill="#3E5F8E"/>
<path d="M479.195 181.074V165.445H424.48V175.497C439.844 188.072 462.119 190.623 479.195 181.074Z" fill="#476894"/>
<path d="M374.45 213.418C373.391 202.299 372.888 188.937 372.685 180.359C372.635 178.471 371.99 176.647 370.843 175.146C369.696 173.646 368.104 172.545 366.295 172.002C363.395 175.191 360.334 178.23 357.126 181.11C357.453 205.926 359.015 217.804 361.609 223.073C362.154 224.198 362.987 225.159 364.024 225.857C365.062 226.555 366.266 226.964 367.513 227.044C385.737 228.006 411.877 212.527 411.877 212.527L412.116 208.114C401.843 208.132 374.45 213.418 374.45 213.418Z" fill="#B26666"/>
<path d="M406.309 209.729C405.996 208.724 406.039 207.641 406.432 206.664C406.824 205.687 407.541 204.874 408.462 204.364C411.762 202.546 412.53 198.566 414.401 198.451C415.946 198.363 415.61 200.957 414.604 202.643C413.863 203.878 412.318 204.858 412.68 204.982C413.98 205.258 415.326 205.236 416.616 204.92C418.019 204.381 424.833 201.16 425.124 200.966C427.312 199.563 427.824 200.772 427.824 200.772C428.883 202.405 424.453 204.752 423.235 205.423C421.382 206.429 418.196 207.876 418.196 207.876L418.275 208.194L430.092 206.835C430.387 206.76 430.7 206.805 430.961 206.961C431.223 207.116 431.412 207.369 431.487 207.664C431.566 208.106 431.328 208.794 430.11 209.218C428.265 209.853 421.673 211.759 418.946 211.936C418.946 211.936 425.371 211.812 427.824 212.483C428.636 212.712 429.951 213.048 429.775 214.001C429.58 215.086 427.639 214.998 427.339 215.007C424.35 215.105 421.357 214.966 418.39 214.592L418.196 214.954C418.196 214.954 422.609 218.784 423.968 219.772C424.1 219.87 424.762 220.328 424.479 220.973C424.029 221.988 423.067 221.458 422.865 221.361C420.825 220.397 418.858 219.288 416.978 218.043C416.395 217.607 415.686 217.371 414.957 217.372C413.236 217.372 410.042 217.187 407.994 215.369C407.17 214.714 406.567 213.822 406.265 212.814C405.964 211.806 405.979 210.729 406.309 209.729Z" fill="#B26666"/>
<path d="M354.567 197.419C354.567 197.419 358.097 205.044 377.247 202.175L373.444 180.351L371.732 166.416C371.732 166.416 350.71 172.444 354.567 197.419Z" fill="#95C0F8"/>
<path d="M373.656 202.616L373.25 185.893C373.25 185.893 376.497 196.659 373.656 202.616Z" fill="#477DA1"/>
<path d="M453.797 189.343C454.986 189.343 455.95 188.379 455.95 187.19C455.95 186.001 454.986 185.037 453.797 185.037C452.607 185.037 451.643 186.001 451.643 187.19C451.643 188.379 452.607 189.343 453.797 189.343Z" fill="white"/>
<path d="M370.876 139.525C370.876 139.525 373.267 139.331 373.523 144.256C373.523 144.256 377.38 141.608 378.333 130.921V136.216C378.333 136.216 387.661 134.213 386.911 124.999C386.911 124.999 399.354 125.061 400.802 136.534C400.802 136.534 404.844 121.328 393.415 119.766C393.415 119.766 400.007 118.133 402.381 123.64C402.381 123.64 400.713 110.005 377.486 118.68C377.486 118.68 378.324 116.342 377.653 116.342C376.983 116.342 376.277 119.872 376.277 119.872C376.277 119.872 374.009 118.204 373.064 118.539C372.12 118.875 375.368 121.116 375.368 121.116C375.368 121.116 364.018 124.161 366.145 133.542L368.872 140.726C369.441 140.18 370.126 139.77 370.876 139.525Z" fill="#0E1325"/>
<path d="M373.656 169.275C373.656 169.275 391.659 174.747 398.957 167.757C398.922 167.757 393.839 177.862 373.656 169.275Z" fill="#477DA1"/>
<path d="M315.542 24.7811C315.542 25.776 315.247 26.7485 314.694 27.5758C314.141 28.403 313.356 29.0478 312.437 29.4285C311.517 29.8092 310.506 29.9088 309.53 29.7147C308.554 29.5206 307.658 29.0416 306.955 28.338C306.251 27.6345 305.772 26.7382 305.578 25.7624C305.384 24.7866 305.483 23.7752 305.864 22.856C306.245 21.9369 306.89 21.1512 307.717 20.5985C308.544 20.0458 309.517 19.7507 310.512 19.7507C311.846 19.7507 313.125 20.2807 314.069 21.2241C315.012 22.1675 315.542 23.4469 315.542 24.7811Z" fill="#1A4279"/>
<path d="M298.342 38.1423C299.409 38.1423 300.274 37.277 300.274 36.2096C300.274 35.1422 299.409 34.2769 298.342 34.2769C297.274 34.2769 296.409 35.1422 296.409 36.2096C296.409 37.277 297.274 38.1423 298.342 38.1423Z" fill="#1A4279"/>
<path d="M312.921 44.3374C315.231 44.3374 317.104 42.4646 317.104 40.1543C317.104 37.844 315.231 35.9712 312.921 35.9712C310.611 35.9712 308.738 37.844 308.738 40.1543C308.738 42.4646 310.611 44.3374 312.921 44.3374Z" fill="#1A4279"/>
<path d="M92.1864 126.597C92.1847 127.662 92.4989 128.704 93.0894 129.59C93.6798 130.477 94.52 131.168 95.5035 131.577C96.487 131.986 97.5697 132.093 98.6146 131.887C99.6594 131.68 100.619 131.168 101.373 130.415C102.127 129.663 102.641 128.704 102.849 127.659C103.057 126.615 102.951 125.532 102.544 124.548C102.137 123.563 101.447 122.722 100.561 122.13C99.676 121.538 98.6349 121.222 97.5698 121.222C96.1435 121.222 94.7756 121.788 93.7663 122.796C92.757 123.804 92.1887 125.171 92.1864 126.597Z" fill="#5C718C"/>
<path d="M105.371 106.581C105.371 107.051 105.51 107.51 105.771 107.9C106.032 108.291 106.403 108.595 106.837 108.774C107.27 108.954 107.748 109.001 108.208 108.91C108.669 108.818 109.092 108.592 109.424 108.26C109.756 107.928 109.982 107.505 110.073 107.044C110.165 106.584 110.118 106.107 109.938 105.673C109.759 105.239 109.454 104.868 109.064 104.607C108.674 104.346 108.215 104.207 107.745 104.207C107.116 104.207 106.512 104.457 106.067 104.903C105.621 105.348 105.371 105.952 105.371 106.581Z" fill="#5C718C"/>
<path d="M115.388 126.606C118.049 126.606 120.206 124.448 120.206 121.787C120.206 119.126 118.049 116.969 115.388 116.969C112.727 116.969 110.569 119.126 110.569 121.787C110.569 124.448 112.727 126.606 115.388 126.606Z" fill="#5C718C"/>
<path d="M530.434 250.405C530.436 251.351 530.157 252.277 529.632 253.064C529.108 253.852 528.362 254.467 527.488 254.83C526.614 255.193 525.652 255.289 524.723 255.106C523.795 254.922 522.942 254.467 522.272 253.799C521.602 253.13 521.146 252.278 520.96 251.35C520.775 250.422 520.869 249.459 521.231 248.585C521.593 247.71 522.206 246.963 522.993 246.437C523.78 245.911 524.705 245.63 525.651 245.63C526.918 245.63 528.133 246.133 529.03 247.028C529.927 247.923 530.432 249.137 530.434 250.405Z" fill="#5C718C"/>
<path d="M541.386 234.175C541.386 234.819 541.195 235.449 540.837 235.985C540.48 236.52 539.971 236.938 539.376 237.184C538.781 237.43 538.126 237.495 537.494 237.369C536.863 237.244 536.282 236.934 535.827 236.478C535.372 236.023 535.061 235.442 534.936 234.811C534.81 234.179 534.875 233.524 535.121 232.929C535.368 232.334 535.785 231.826 536.321 231.468C536.856 231.11 537.486 230.919 538.13 230.919C538.993 230.919 539.822 231.262 540.432 231.873C541.043 232.483 541.386 233.312 541.386 234.175Z" fill="#5C718C"/>
<path d="M547.211 250.078C547.212 250.533 547.079 250.978 546.828 251.357C546.576 251.735 546.218 252.031 545.798 252.205C545.379 252.38 544.917 252.426 544.471 252.338C544.025 252.25 543.615 252.031 543.294 251.71C542.972 251.388 542.754 250.979 542.665 250.533C542.577 250.087 542.623 249.625 542.798 249.205C542.973 248.785 543.268 248.427 543.647 248.176C544.026 247.924 544.47 247.791 544.925 247.793C545.531 247.793 546.113 248.034 546.541 248.462C546.97 248.891 547.211 249.472 547.211 250.078Z" fill="#5C718C"/>
<path d="M468.685 77.9612C469.276 77.9589 469.843 77.7229 470.261 77.3047C470.679 76.8865 470.915 76.3199 470.917 75.7285V63.6998C470.915 63.1084 470.679 62.5418 470.261 62.1236C469.843 61.7053 469.276 61.4694 468.685 61.467C468.093 61.467 467.525 61.7023 467.106 62.121C466.687 62.5397 466.452 63.1076 466.452 63.6998V75.7285C466.452 76.3206 466.687 76.8886 467.106 77.3073C467.525 77.726 468.093 77.9612 468.685 77.9612Z" fill="#263F5C"/>
<path d="M460.433 69.7184C460.433 70.3105 460.669 70.8784 461.087 71.2972C461.506 71.7159 462.074 71.9511 462.666 71.9511H474.695C475.284 71.9465 475.847 71.7092 476.262 71.2909C476.677 70.8727 476.91 70.3075 476.91 69.7184C476.907 69.1269 476.671 68.5603 476.253 68.1421C475.835 67.7239 475.268 67.4879 474.677 67.4856H462.666C462.075 67.4879 461.508 67.7239 461.09 68.1421C460.672 68.5603 460.436 69.1269 460.433 69.7184Z" fill="#263F5C"/>
<path d="M315.542 182.601C316.133 182.599 316.7 182.363 317.118 181.944C317.536 181.526 317.772 180.96 317.775 180.368V168.339C317.772 167.748 317.536 167.181 317.118 166.763C316.7 166.345 316.133 166.109 315.542 166.107C314.951 166.109 314.384 166.345 313.966 166.763C313.548 167.181 313.312 167.748 313.309 168.339V180.368C313.312 180.96 313.548 181.526 313.966 181.944C314.384 182.363 314.951 182.599 315.542 182.601Z" fill="#263F5C"/>
<path d="M307.29 174.35C307.29 174.944 307.527 175.514 307.947 175.935C308.367 176.355 308.938 176.591 309.532 176.591H321.587C322.18 176.589 322.748 176.352 323.167 175.931C323.585 175.511 323.82 174.943 323.82 174.35C323.822 174.054 323.766 173.762 323.655 173.488C323.544 173.215 323.38 172.966 323.173 172.756C322.965 172.546 322.718 172.379 322.446 172.265C322.174 172.151 321.882 172.091 321.587 172.09H309.532C309.236 172.09 308.943 172.149 308.67 172.263C308.397 172.376 308.149 172.543 307.941 172.753C307.732 172.963 307.568 173.212 307.456 173.486C307.344 173.76 307.288 174.054 307.29 174.35Z" fill="#263F5C"/>
<path d="M260.155 246.01C260.45 246.01 260.733 245.893 260.942 245.684C261.15 245.476 261.267 245.193 261.267 244.898V238.879C261.267 238.584 261.15 238.301 260.942 238.093C260.733 237.884 260.45 237.767 260.155 237.767C259.86 237.767 259.576 237.884 259.366 238.092C259.156 238.3 259.037 238.583 259.035 238.879V244.898C259.037 245.194 259.156 245.476 259.366 245.685C259.576 245.893 259.86 246.01 260.155 246.01Z" fill="#263F5C"/>
<path d="M256.034 241.889C256.034 242.184 256.151 242.466 256.36 242.675C256.568 242.883 256.851 243.001 257.146 243.001H263.165C263.46 243.001 263.742 242.883 263.951 242.675C264.16 242.466 264.277 242.184 264.277 241.889C264.277 241.593 264.16 241.309 263.952 241.099C263.743 240.889 263.46 240.77 263.165 240.768H257.164C257.016 240.767 256.869 240.795 256.732 240.851C256.595 240.906 256.47 240.989 256.365 241.093C256.26 241.197 256.177 241.321 256.12 241.458C256.063 241.594 256.034 241.741 256.034 241.889Z" fill="#263F5C"/>
<path d="M564.349 158.049C564.647 158.049 564.932 157.931 565.142 157.721C565.352 157.511 565.47 157.226 565.47 156.929V150.91C565.47 150.613 565.352 150.328 565.142 150.117C564.932 149.907 564.647 149.789 564.349 149.789C564.054 149.791 563.771 149.91 563.562 150.12C563.354 150.33 563.237 150.614 563.237 150.91V156.92C563.236 157.067 563.264 157.213 563.319 157.349C563.374 157.486 563.456 157.61 563.559 157.715C563.663 157.82 563.785 157.903 563.921 157.961C564.057 158.018 564.202 158.048 564.349 158.049Z" fill="#263F5C"/>
<path d="M560.228 153.928C560.23 154.224 560.349 154.507 560.559 154.715C560.769 154.923 561.053 155.04 561.349 155.04H567.359C567.653 155.038 567.934 154.92 568.142 154.712C568.35 154.504 568.468 154.222 568.47 153.928C568.471 153.632 568.354 153.349 568.145 153.139C567.937 152.929 567.654 152.81 567.359 152.807H561.349C561.051 152.807 560.766 152.925 560.556 153.136C560.346 153.346 560.228 153.631 560.228 153.928Z" fill="#263F5C"/>
<path d="M441.786 53.1449C442.162 53.1426 442.522 52.9922 442.788 52.7262C443.054 52.4603 443.204 52.1002 443.207 51.7241V44.1256C443.204 43.7503 443.053 43.3912 442.787 43.1267C442.521 42.8621 442.161 42.7136 441.786 42.7136C441.41 42.7136 441.05 42.8621 440.784 43.1267C440.518 43.3912 440.367 43.7503 440.365 44.1256V51.7682C440.376 52.1374 440.531 52.4875 440.796 52.7445C441.061 53.0015 441.416 53.1451 441.786 53.1449Z" fill="#263F5C"/>
<path d="M436.544 47.9027C436.546 48.2789 436.696 48.6389 436.962 48.9049C437.228 49.1708 437.588 49.3213 437.964 49.3236H445.607C445.983 49.3213 446.343 49.1708 446.609 48.9049C446.875 48.6389 447.026 48.2789 447.028 47.9027C447.025 47.5274 446.875 47.1683 446.609 46.9038C446.342 46.6392 445.982 46.4907 445.607 46.4907H437.964C437.589 46.4907 437.229 46.6392 436.963 46.9038C436.697 47.1683 436.546 47.5274 436.544 47.9027Z" fill="#263F5C"/>
<path d="M193.727 39.3264L189.233 38.9482L162.36 358.305L166.854 358.683L193.727 39.3264Z" fill="#0C143B"/>
<path d="M253.4 42.3252L248.906 41.947L222.033 361.303L226.527 361.682L253.4 42.3252Z" fill="#0C143B"/>
<path d="M248.836 69.7217L187.084 64.5254L186.715 68.9136L248.467 74.1099L248.836 69.7217Z" fill="#0C143B"/>
<path d="M245.715 106.749L183.963 101.552L183.594 105.94L245.346 111.137L245.715 106.749Z" fill="#0C143B"/>
<path d="M242.604 143.784L180.852 138.588L180.482 142.976L242.234 148.172L242.604 143.784Z" fill="#0C143B"/>
<path d="M239.492 180.812L177.74 175.615L177.371 180.003L239.122 185.2L239.492 180.812Z" fill="#0C143B"/>
<path d="M236.371 217.846L174.619 212.65L174.25 217.038L236.002 222.234L236.371 217.846Z" fill="#0C143B"/>
<path d="M235.19 254.962L173.22 250.005L172.868 254.409L234.838 259.366L235.19 254.962Z" fill="#0C143B"/>
<path d="M230.139 291.909L168.387 286.713L168.018 291.101L229.77 296.297L230.139 291.909Z" fill="#0C143B"/>
<path d="M227.027 328.936L165.275 323.74L164.906 328.128L226.658 333.324L227.027 328.936Z" fill="#0C143B"/>
<path d="M203.074 48.1148C203.074 48.1148 215.518 45.8644 217.768 59.2433C220.019 72.6222 214.415 91.208 225.976 95.4264C237.536 99.6448 237.634 112.785 217.503 113.28C197.373 113.774 200.109 109.652 200.109 109.652L203.074 48.1148Z" fill="#0E1325"/>
<path d="M205.175 47.9735C205.175 47.9735 186.942 45.8907 184.692 59.2432C182.441 72.5956 188.054 91.2079 176.493 95.4263C164.932 99.6447 164.835 112.785 184.956 113.28C205.078 113.774 202.36 109.652 202.36 109.652L205.175 47.9735Z" fill="#0E1325"/>
<path d="M217.733 101.736C224.281 103.175 234.501 105.311 243.149 106.608C243.149 106.608 244.297 84.8362 246.212 77.0613L249.521 78.0762C249.521 78.0762 256.334 100.819 252.169 114.453C251.874 115.385 251.337 116.221 250.613 116.877C249.889 117.533 249.003 117.985 248.047 118.186C243.546 119.166 234.218 118.098 215.262 113.65C211.441 112.768 208.466 110.729 209.402 106.926C209.846 105.149 210.964 103.615 212.518 102.647C214.073 101.678 215.942 101.352 217.733 101.736Z" fill="#ECC4A1"/>
<path d="M246.062 78.9324C245.456 78.3904 245.051 77.6588 244.915 76.8573C244.779 76.0557 244.919 75.2317 245.311 74.5199C246.768 71.9694 245.656 68.9953 246.865 68.1569C247.853 67.4774 248.692 69.3307 248.709 70.8751C248.709 71.9959 248.083 73.2755 248.374 73.2137C249.354 72.8684 250.243 72.3075 250.977 71.5723C251.692 70.6368 254.922 65.7124 255.037 65.4653C255.919 63.6384 256.802 64.2297 256.802 64.2297C258.17 64.8828 256.175 68.2628 255.637 69.2071C254.816 70.628 253.281 72.896 253.281 72.896L253.457 73.0725C253.457 73.0725 260.42 67.6274 260.782 67.3538C260.864 67.2684 260.963 67.2005 261.072 67.1541C261.181 67.1077 261.299 67.0838 261.417 67.0838C261.536 67.0838 261.653 67.1077 261.763 67.1541C261.872 67.2005 261.97 67.2684 262.053 67.3538C262.282 67.6274 262.406 68.1746 261.77 68.96C259.842 71.2564 257.722 73.385 255.434 75.3229C255.434 75.3229 259.67 72.6224 261.612 72.0665C262.247 71.89 263.262 71.5723 263.527 72.2783C263.791 72.9843 262.512 73.8227 262.318 73.9462C260.366 75.2332 258.315 76.3634 256.184 77.3262V77.6351C256.184 77.6351 260.694 78.3853 262 78.5176C262.123 78.5176 262.75 78.5176 262.821 79.1089C262.935 79.9914 262.079 79.9914 261.938 79.9914C260.18 80.1827 258.41 80.2447 256.643 80.1768C256.078 80.1225 255.51 80.2558 255.028 80.5562C253.89 81.2799 251.674 82.4272 249.565 82.0565C248.728 81.9678 247.939 81.6187 247.311 81.0582C246.682 80.4978 246.245 79.7543 246.062 78.9324Z" fill="#ECC4A1"/>
<path d="M173.325 266.043L172.954 269.423C169.203 275.274 180.297 286.738 180.297 286.738L191.346 287.779C183.65 282.228 181.841 266.846 181.841 266.846L173.325 266.043Z" fill="#ECC4A1"/>
<path d="M172.981 269.423C172.981 269.423 168.136 270.658 168.762 281.778C168.903 284.231 168.877 287.073 169.036 290.436L173.334 290.841L174.154 282.175C174.154 282.175 176.052 291.344 181.717 292.024C185.53 292.474 191.337 293.004 194.726 293.304C195.14 293.337 195.554 293.232 195.902 293.005C196.25 292.778 196.513 292.443 196.651 292.05C196.788 291.658 196.791 291.231 196.66 290.837C196.529 290.443 196.271 290.103 195.926 289.871C194.629 289.068 193.239 288.425 191.787 287.956C188.68 286.861 186.262 287.25 182.962 284.602C177.94 280.56 173.325 273.438 172.981 269.423Z" fill="#B53E27"/>
<path d="M204.716 268.708L204.345 272.088C200.594 277.939 211.688 289.403 211.688 289.403L222.746 290.453C215.059 284.893 213.25 269.52 213.25 269.52L204.716 268.708Z" fill="#ECC4A1"/>
<path d="M204.345 272.088C204.345 272.088 199.5 273.324 200.127 284.443C200.259 286.906 200.241 289.738 200.392 293.101L204.689 293.507L205.519 284.84C205.519 284.84 207.408 294.01 213.082 294.689C216.895 295.148 222.693 295.678 226.09 295.969C226.505 296.002 226.918 295.897 227.266 295.67C227.615 295.444 227.878 295.108 228.015 294.716C228.152 294.323 228.156 293.897 228.024 293.502C227.893 293.108 227.635 292.768 227.291 292.536C225.99 291.738 224.601 291.096 223.152 290.621C220.036 289.527 217.627 289.915 214.326 287.267C209.305 283.225 204.663 276.104 204.345 272.088Z" fill="#B53E27"/>
<path d="M180.791 100.739C180.791 100.739 170.933 102.036 169.151 128.653C167.368 155.269 156.742 183.201 156.742 183.201L161.481 187.472C161.481 187.472 180.482 152.737 181.85 119.722L180.791 100.739Z" fill="#ECC4A1"/>
<path d="M190.322 69.5069C192.131 72.075 192.572 76.3199 190.446 77.7937C188.319 79.2675 184.436 77.3877 182.618 74.8196C180.8 72.2515 181.064 68.9774 183.191 67.5124C185.318 66.0474 188.513 66.9388 190.322 69.5069Z" fill="#DFB38C"/>
<path d="M221.263 161.094H203.295V160.618L178.037 160.494C165.029 172.779 171.401 270.456 171.401 270.456L183.032 272.494C194.92 208.75 198.759 184.022 198.759 184.022H199.809L201.106 184.084H201.556C201.556 184.084 204.504 222.685 201.786 274.383L214.503 275.742C214.503 275.742 232.391 204.461 221.263 161.094Z" fill="#FCB651"/>
<path d="M222.843 168.508C222.393 165.957 221.872 163.486 221.263 161.094H203.295V160.618L178.037 160.494C176.557 162.126 175.459 164.068 174.825 166.178C189.334 175.956 208.325 177.845 222.843 168.508Z" fill="#BA6919"/>
<path d="M215.227 100.863C202.218 96.45 206.137 83.2123 206.137 83.2123L193.111 82.8857C193.111 82.8857 196.35 96.3617 183.138 100.068C182.318 100.298 181.541 100.536 180.791 100.765C190.931 111.356 208.034 109.185 217.486 101.869C217.49 101.81 217.49 101.751 217.486 101.692C216.78 101.392 216.021 101.127 215.227 100.863Z" fill="#ECC4A1"/>
<path d="M193.464 86.0454C193.448 84.9746 193.33 83.9078 193.111 82.8595L199.174 82.277V82.1711L199.633 82.2329L200.109 82.1888V82.3035L206.137 83.186C205.716 84.8341 205.534 86.5342 205.598 88.234C204.213 90.8992 199.332 94.4734 193.464 86.0454Z" fill="#D29B70"/>
<path d="M215.43 61.5556C215.844 67.036 215.994 78.8264 210.717 83.8303C203.78 90.4139 192.184 86.116 189.537 79.1177C187.233 73.0813 187.516 62.1293 192.008 55.0427C194.329 51.3714 199.068 48.7768 204.831 49.2181C213.32 49.8711 215.297 59.8347 215.43 61.5556Z" fill="#ECC4A1"/>
<path d="M204.769 63.3731C204.813 64.9264 204.848 66.4708 204.892 68.024L204.972 71.4746C204.941 72.1751 204.958 72.8769 205.025 73.575C205.025 73.575 205.025 73.6986 205.025 73.725C204.919 73.5485 205.254 73.628 204.963 73.6191C204.847 73.6311 204.732 73.6518 204.619 73.6809L203.118 73.928C202.942 73.928 203.021 74.2281 203.198 74.2016L205.201 73.8662C205.229 73.857 205.254 73.8393 205.271 73.8156C205.288 73.7919 205.298 73.7633 205.298 73.7339C205.228 70.7157 205.148 67.6975 205.078 64.6881C205.078 64.2468 205.078 63.8056 205.078 63.3731C205.078 63.3357 205.063 63.2998 205.036 63.2733C205.01 63.2468 204.974 63.2319 204.936 63.2319C204.899 63.2319 204.863 63.2468 204.837 63.2733C204.81 63.2998 204.795 63.3357 204.795 63.3731H204.769Z" fill="#0C143B"/>
<path d="M197.153 74.952C197.221 75.5561 197.103 76.1666 196.814 76.7018C196.526 77.2369 196.08 77.671 195.538 77.9461C194.996 78.2212 194.383 78.3241 193.781 78.241C193.178 78.1579 192.616 77.8927 192.169 77.481C191.721 77.0694 191.41 76.5308 191.278 75.9376C191.145 75.3443 191.197 74.7246 191.426 74.1616C191.655 73.5985 192.051 73.1189 192.56 72.787C193.069 72.4551 193.668 72.2867 194.276 72.3045C194.638 72.2891 195.001 72.3454 195.342 72.4702C195.683 72.595 195.996 72.7858 196.263 73.0317C196.53 73.2776 196.746 73.5738 196.899 73.9033C197.052 74.2328 197.138 74.5892 197.153 74.952Z" fill="#D57F6D"/>
<path d="M214.053 75.3844C214.119 75.9862 214 76.594 213.712 77.1264C213.423 77.6588 212.979 78.0905 212.439 78.3638C211.899 78.6371 211.288 78.7389 210.688 78.6558C210.088 78.5726 209.528 78.3083 209.083 77.8983C208.637 77.4883 208.327 76.9521 208.195 76.3613C208.062 75.7705 208.113 75.1533 208.341 74.5922C208.568 74.0311 208.961 73.5528 209.468 73.2213C209.975 72.8897 210.571 72.7207 211.176 72.7369C211.539 72.7215 211.901 72.7778 212.242 72.9026C212.583 73.0273 212.896 73.2182 213.163 73.4641C213.431 73.71 213.647 74.0061 213.799 74.3357C213.952 74.6652 214.038 75.0216 214.053 75.3844Z" fill="#D57F6D"/>
<path d="M195.193 65.1207C195.282 65.6855 196.376 65.4296 197.726 65.2089C199.077 64.9883 200.197 64.8824 200.1 64.3264C200.003 63.7704 198.829 63.4439 197.453 63.6998C196.076 63.9558 195.096 64.5471 195.193 65.1207Z" fill="#09489D"/>
<path d="M208.078 63.5412C207.946 64.106 209.058 64.2737 210.399 64.565C211.741 64.8562 212.808 65.1739 212.941 64.6179C213.073 64.0619 212.058 63.3559 210.735 63.0647C209.411 62.7735 208.202 62.9853 208.078 63.5412Z" fill="#09489D"/>
<path d="M225.976 160.529C223.866 154.255 221.845 149.604 220.954 147.495C218.907 142.641 221.563 131.451 222.887 126.579C223.701 123.691 224.102 120.702 224.078 117.701C223.911 106.122 217.503 101.666 217.503 101.666C203.057 111.144 180.791 100.783 180.791 100.783C174.869 121.672 185.724 126.853 176.008 148.977C174.136 153.363 172.585 157.879 171.366 162.489C184.727 169.337 217.309 171.305 225.976 160.529Z" fill="#83B7F3"/>
<path d="M197.506 70.116C197.506 70.9985 197.894 71.6869 198.388 71.6957C198.882 71.7045 199.35 71.025 199.368 70.1601C199.385 69.2952 198.988 68.5892 198.485 68.5804C197.982 68.5716 197.532 69.2511 197.506 70.116Z" fill="#0C143B"/>
<path d="M207.116 70.3628C207.116 71.2454 207.496 71.9337 207.999 71.9425C208.502 71.9514 208.952 71.2718 208.978 70.407C209.005 69.5421 208.599 68.8361 208.096 68.8184C207.593 68.8008 207.143 69.498 207.116 70.3628Z" fill="#0C143B"/>
<path d="M164.35 179.927C165.29 180.052 166.16 180.496 166.812 181.185C167.464 181.874 167.86 182.767 167.933 183.713C168.18 187.093 171.154 189.22 170.58 190.773C170.068 192.07 168.074 190.826 167.05 189.37C166.318 188.302 166.097 186.661 165.859 186.916C165.143 187.877 164.655 188.988 164.429 190.164C164.341 191.514 164.429 198.301 164.429 198.61C164.756 200.931 163.547 200.896 163.547 200.896C161.781 201.151 161.552 196.642 161.464 195.389C161.331 193.5 161.34 190.341 161.34 190.341L161.058 190.288C161.058 190.288 157.898 199.995 157.731 200.472C157.679 200.74 157.525 200.978 157.301 201.135C157.077 201.291 156.8 201.354 156.531 201.31C156.133 201.204 155.648 200.754 155.772 199.598C155.948 197.833 156.866 191.735 157.74 189.432C157.74 189.432 155.427 194.727 153.954 196.492C153.468 197.065 152.7 198.019 151.986 197.524C151.271 197.03 151.986 195.389 152.065 195.142C153.11 192.659 154.349 190.263 155.772 187.975L155.551 187.675C155.551 187.675 150.75 189.864 149.435 190.597C149.312 190.667 148.685 191.038 148.261 190.597C147.599 189.846 148.394 189.255 148.544 189.132C150.101 187.825 151.75 186.63 153.477 185.557C154.056 185.244 154.516 184.747 154.783 184.145C155.41 182.733 156.786 180.201 159.046 179.203C159.897 178.763 160.863 178.596 161.812 178.726C162.762 178.855 163.648 179.275 164.35 179.927Z" fill="#ECC4A1"/>
<path d="M206.578 76.3286C205.481 76.8104 204.292 77.0443 203.094 77.0138C201.897 76.9833 200.721 76.6891 199.65 76.1521C199.65 76.1521 199.121 79.6822 202.686 79.991C206.807 80.3882 206.578 76.3286 206.578 76.3286Z" fill="#6D2D25"/>
<mask id="mask1_486_735" style="mask-type:luminance" maskUnits="userSpaceOnUse" x="199" y="76" width="8" height="5">
<path d="M206.578 76.3286C205.481 76.8104 204.292 77.0443 203.094 77.0138C201.897 76.9833 200.721 76.6891 199.65 76.1521C199.65 76.1521 199.121 79.6822 202.686 79.991C206.807 80.3882 206.578 76.3286 206.578 76.3286Z" fill="white"/>
</mask>
<g mask="url(#mask1_486_735)">
<path d="M205.695 80.3087C205.695 80.3087 205.245 78.6055 202.871 78.6408C202.222 78.6223 201.579 78.7621 200.996 79.0481C200.413 79.3341 199.909 79.7577 199.527 80.2823C199.527 80.2823 202.58 83.0534 205.695 80.3087Z" fill="#D57F6D"/>
<path d="M200.206 76.1696C200.206 76.1696 200.021 77.5817 203.163 77.6523C206.304 77.7229 205.934 76.1167 205.934 76.1167L200.206 76.1696Z" fill="white"/>
</g>
<path d="M203.666 81.3592C203.666 81.4916 203.392 81.5975 203.065 81.5887C202.739 81.5799 202.474 81.4651 202.483 81.3328C202.492 81.2004 202.748 81.0856 203.083 81.0945C203.419 81.1033 203.666 81.1916 203.666 81.3592Z" fill="#D29B70"/>
<path d="M171.56 113.721C171.56 113.721 171.736 102.248 181.453 99.6006C181.453 99.6006 190.746 97.1384 192.617 91.7815C192.617 91.7815 194.946 94.279 206.393 92.6022C206.393 92.6022 207.496 95.7881 212.641 98.8504C215.138 100.313 217.88 101.312 220.733 101.798C222.851 102.178 225.517 102.636 226.602 102.742L227.396 116.289L216.259 117.021L180.826 118.513C180.826 118.513 175.019 116.916 171.56 113.721Z" fill="#83B7F3"/>
<path d="M186.254 65.8797C186.254 65.8797 187.374 74.9872 188.504 75.3138C189.634 75.6403 195.564 54.1334 195.564 54.1334C195.564 54.1334 200.03 54.9542 199.094 61.1406C199.094 61.1406 204.645 62.6409 207.46 61.2024C210.276 59.7639 207.46 52.4478 207.46 52.4478C207.46 52.4478 211.141 55.5101 209.181 61.3259C209.181 61.3259 215.968 64.0794 216.153 60.5758C216.339 57.0722 212.155 43.4462 194.699 50.3827C194.752 50.4269 183.915 51.8036 186.254 65.8797Z" fill="#0E1325"/>
<path d="M276.888 30.385C276.89 26.4172 275.938 22.5072 274.113 18.984C272.288 15.4608 269.644 12.4278 266.402 10.1402C263.16 7.85262 259.416 6.37752 255.485 5.83914C251.554 5.30076 247.551 5.71485 243.813 7.04653C240.076 8.37822 236.713 10.5885 234.008 13.4913C231.303 16.394 229.335 19.9043 228.27 23.7264C227.205 27.5485 227.074 31.5706 227.888 35.4539C228.702 39.3372 230.437 42.9681 232.947 46.0408C238.336 52.5103 242.981 59.5646 246.794 67.0711L247.58 68.6684H256.669L257.464 67.0711C261.187 59.6224 265.779 52.6403 271.143 46.2702C274.87 41.8179 276.905 36.1917 276.888 30.385Z" fill="#FCB651"/>
<path d="M254.869 74.8813H249.38C249.141 74.8813 248.905 74.8343 248.684 74.7429C248.464 74.6516 248.263 74.5177 248.094 74.3488C247.926 74.18 247.792 73.9796 247.7 73.7591C247.609 73.5385 247.562 73.3021 247.562 73.0633C247.562 72.5812 247.753 72.1188 248.094 71.7778C248.435 71.4369 248.898 71.2454 249.38 71.2454H254.869C255.352 71.2454 255.815 71.4366 256.158 71.7773C256.5 72.118 256.694 72.5804 256.696 73.0633C256.694 73.5463 256.5 74.0087 256.158 74.3494C255.815 74.6901 255.352 74.8813 254.869 74.8813Z" fill="#0C143B"/>
<path d="M253.634 66.8858C253.634 66.8858 253.316 40.3662 260.464 37.1362C267.48 33.9592 267.701 48.4059 254.004 49.8797C253.438 49.9341 252.87 49.9577 252.301 49.9503H252.036C251.471 49.9577 250.905 49.9341 250.342 49.8797C236.645 48.4059 236.857 33.9945 243.873 37.1362C251.03 40.3662 250.712 66.8858 250.712 66.8858" stroke="white" stroke-width="0.76" stroke-miterlimit="10"/>
<path d="M257.49 69.7185H246.759C246.52 69.7185 246.284 69.6715 246.063 69.5801C245.843 69.4887 245.642 69.3548 245.473 69.186C245.305 69.0172 245.171 68.8168 245.079 68.5962C244.988 68.3756 244.941 68.1392 244.941 67.9005C244.941 67.6618 244.988 67.4254 245.079 67.2048C245.171 66.9842 245.305 66.7838 245.473 66.615C245.642 66.4462 245.843 66.3123 246.063 66.2209C246.284 66.1295 246.52 66.0825 246.759 66.0825H257.49C257.973 66.0825 258.437 66.2738 258.779 66.6145C259.121 66.9551 259.315 67.4175 259.317 67.9005C259.315 68.3835 259.121 68.8459 258.779 69.1865C258.437 69.5272 257.973 69.7185 257.49 69.7185Z" fill="#0C143B"/>
<path d="M237.069 15.1086C233.433 19.2211 232.833 24.6309 235.736 27.199C238.64 29.7671 243.944 28.5051 247.571 24.3926C251.198 20.2801 251.807 14.8703 248.903 12.3022C246 9.73404 240.696 10.996 237.069 15.1086Z" fill="#F1CB6F"/>
</svg>
